<?xml version="1.0" encoding="UTF-8" standalone="no"?>
<svg
   xmlns:dc="http://purl.org/dc/elements/1.1/"
   xmlns:cc="http://creativecommons.org/ns#"
   xmlns:rdf="http://www.w3.org/1999/02/22-rdf-syntax-ns#"
   xmlns:svg="http://www.w3.org/2000/svg"
   xmlns="http://www.w3.org/2000/svg"
   xmlns:sodipodi="http://sodipodi.sourceforge.net/DTD/sodipodi-0.dtd"
   xmlns:inkscape="http://www.inkscape.org/namespaces/inkscape"
   viewBox="0 0 64 64"
   version="1.1"
   id="svg4"
   sodipodi:docname="thumb.svg"
   inkscape:export-filename="/home/calcita/myblog/mapamundi/mapamundi/public/img/work/proj-003/thumb.svg.png"
   inkscape:export-xdpi="96"
   inkscape:export-ydpi="96"
   inkscape:version="0.92.2 (unknown)">
  <metadata
     id="metadata10">
    <rdf:RDF>
      <cc:Work
         rdf:about="">
        <dc:format>image/svg+xml</dc:format>
        <dc:type
           rdf:resource="http://purl.org/dc/dcmitype/StillImage" />
      </cc:Work>
    </rdf:RDF>
  </metadata>
  <defs
     id="defs8" />
  <sodipodi:namedview
     pagecolor="#ffffff"
     bordercolor="#666666"
     borderopacity="1"
     objecttolerance="10"
     gridtolerance="10"
     guidetolerance="10"
     inkscape:pageopacity="0"
     inkscape:pageshadow="2"
     inkscape:window-width="1920"
     inkscape:window-height="1001"
     id="namedview6"
     showgrid="false"
     inkscape:zoom="3.6875"
     inkscape:cx="3831.4368"
     inkscape:cy="-711.37447"
     inkscape:window-x="0"
     inkscape:window-y="27"
     inkscape:window-maximized="1"
     inkscape:current-layer="svg4" />
  <g
     id="g26"
     transform="translate(18.983051,1.0847458)">
    <g
       id="g21">
      <rect
         style="fill:#f9f9f9"
         id="rect12"
         width="206.10172"
         height="116.88138"
         x="3721.7627"
         y="757.42371"
         inkscape:export-filename="/home/calcita/myblog/mapamundi/mapamundi/public/img/work/proj-003.png"
         inkscape:export-xdpi="96"
         inkscape:export-ydpi="96" />
    </g>
    <path
       inkscape:connector-curvature="0"
       id="path2"
       d="m 3817.164,785.20975 c -0.1299,10e-4 -0.2617,0.0265 -0.3887,0.082 -0.507,0.22 -0.7395,0.8094 -0.5195,1.3164 l 0.4941,1.13672 c -13.018,6.238 -18.8899,21.76142 -13.0879,35.10742 2.876,6.614 8.1542,11.70952 14.8652,14.35352 2.885,1.136 5.8855,1.75614 8.8965,1.86914 v 4.00977 h -9.8105 c -2.191,0 -4.2846,1.04778 -5.5996,2.80078 l -1.2012,1.59961 c -0.228,0.303 -0.2627,0.70787 -0.094,1.04687 0.171,0.339 0.5165,0.55274 0.8945,0.55274 h 38 c 0.379,0 0.7245,-0.21374 0.8945,-0.55274 0.169,-0.339 0.1323,-0.74387 -0.096,-1.04687 l -1.1992,-1.59961 c -1.314,-1.753 -3.4076,-2.80078 -5.5996,-2.80078 h -10.1895 v -4.46485 c 1.638,-0.312 3.2579,-0.77744 4.8399,-1.39844 l 0.4922,1.13672 c 0.164,0.376 0.5329,0.60157 0.9199,0.60157 0.133,0 0.2675,-0.026 0.3965,-0.082 0.507,-0.22 0.7395,-0.8094 0.5195,-1.3164 l -0.5,-1.15039 c 4.952,-2.371 9.0061,-6.101 11.7441,-10.875 0.275,-0.479 0.1099,-1.09024 -0.3691,-1.36524 -0.478,-0.275 -1.0912,-0.10986 -1.3652,0.36914 -2.523,4.398 -6.2536,7.84111 -10.8086,10.03711 l -1.5977,-3.67773 c 4.701,-2.311 8.3356,-6.21119 10.2676,-11.11719 0.383,-0.974 0.6674,-1.96775 0.9004,-2.96875 0.01,-0.044 0.031,-0.0819 0.035,-0.12891 0,-0.006 0,-0.0125 0,-0.0195 0.88,-3.893 0.6299,-7.92679 -0.7461,-11.71679 -0.01,-0.108 -0.024,-0.21532 -0.07,-0.32032 l -0.7969,-1.83593 c -0.046,-0.104 -0.1155,-0.18858 -0.1875,-0.26758 -1.831,-3.588 -4.6078,-6.5212 -8.0508,-8.5332 -0.01,-0.006 -0.011,-0.0155 -0.018,-0.0215 -0.052,-0.041 -0.1148,-0.0559 -0.1718,-0.0859 -0.876,-0.5 -1.7804,-0.96189 -2.7364,-1.33789 -4.908,-1.934 -10.2398,-1.93622 -15.1328,-0.0742 l -2.8945,-6.66015 c -0.165,-0.3795 -0.538,-0.60569 -0.9277,-0.60156 z m 0.3847,4.36914 1.6055,3.6914 c -4.701,2.311 -8.3356,6.21119 -10.2676,11.11719 -0.374,0.949 -0.6527,1.91758 -0.8847,2.89258 -0.021,0.068 -0.052,0.13012 -0.059,0.20312 -0,0.012 0,0.0232 0,0.0352 -0.971,4.314 -0.5783,8.80745 1.2187,12.93945 1.797,4.133 4.8148,7.4848 8.6328,9.7168 0.01,0.007 0.013,0.0164 0.022,0.0234 0.095,0.075 0.1987,0.12906 0.3067,0.16406 0.835,0.468 1.6936,0.90276 2.5996,1.25976 2.494,0.983 5.1001,1.47266 7.7011,1.47266 2.517,0 5.0247,-0.48539 7.4317,-1.40039 l 1.6054,3.69336 c -2.71,1.055 -5.535,1.62127 -8.373,1.69727 h -0.668 c -0.011,0 -0.02,0.006 -0.031,0.006 -3.085,-0.005 -6.1739,-0.58109 -9.1309,-1.74609 -6.213,-2.448 -11.1026,-7.16701 -13.7656,-13.29101 -5.362,-12.333 0.045,-26.67861 12.0527,-32.47461 z m 10.8692,3.49609 c 2.354,0 4.7127,0.44203 6.9687,1.33203 0.493,0.194 0.9675,0.41939 1.4375,0.65039 -0.99,1.11 -2.151,2.19256 -3.459,3.22656 -1.969,-2.412 -4.1277,-4.15867 -6.3007,-5.13867 0.451,-0.034 0.9015,-0.0703 1.3535,-0.0703 z m -5.4219,1.17188 c 2.8013,-0.0437 5.9672,1.86407 8.7559,5.23632 -1.87,1.309 -3.9587,2.50421 -6.1797,3.53321 l -3.752,-8.63086 c 0.3831,-0.0874 0.7756,-0.13243 1.1758,-0.13867 z m -3.0117,0.93554 3.7519,8.63086 c -2.268,0.923 -4.5658,1.63633 -6.7988,2.11133 -0.646,-4.959 0.4429,-8.97719 3.0469,-10.74219 z m 18.6269,0.86524 c 3.186,2.015 5.7004,4.92793 7.2364,8.46093 1.537,3.533 1.9539,7.3585 1.2539,11.0625 -1.756,-0.076 -3.6197,0.0341 -5.5547,0.33008 -0.22,-1.033 -0.5025,-2.09087 -0.8535,-3.17187 -0.172,-0.525 -0.7348,-0.81258 -1.2598,-0.64258 -0.525,0.17 -0.8126,0.73476 -0.6426,1.25976 0.322,0.991 0.5812,1.96411 0.7832,2.91211 -2.376,0.501 -4.8217,1.26468 -7.2617,2.26368 l -1.0059,-2.31641 c -0.221,-0.506 -0.8094,-0.73958 -1.3164,-0.51758 -0.507,0.22 -0.7375,0.80941 -0.5175,1.31641 l 1.0058,2.31445 c -2.395,1.103 -4.6195,2.37353 -6.6055,3.76953 -0.556,-0.795 -1.0916,-1.64955 -1.5976,-2.56055 -0.269,-0.484 -0.8744,-0.65467 -1.3594,-0.38867 -0.482,0.268 -0.6567,0.87442 -0.3887,1.35742 0.552,0.995 1.1382,1.91916 1.7442,2.78516 -1.537,1.214 -2.8902,2.50284 -4.0352,3.83984 -3.186,-2.015 -5.7003,-4.92793 -7.2363,-8.46093 -1.537,-3.534 -1.9539,-7.36046 -1.2539,-11.06446 0.347,0.015 0.687,0.041 1.043,0.041 1.444,0 2.9587,-0.13409 4.5117,-0.37109 0.22,1.033 0.5015,2.09282 0.8535,3.17382 0.138,0.423 0.5292,0.69336 0.9512,0.69336 0.103,0 0.2056,-0.0178 0.3086,-0.0508 0.525,-0.17 0.8145,-0.73476 0.6445,-1.25976 -0.322,-0.992 -0.5812,-1.96507 -0.7832,-2.91407 2.377,-0.501 4.8207,-1.25881 7.2617,-2.25781 l 1.0059,2.3125 c 0.164,0.376 0.5309,0.60156 0.9179,0.60156 0.133,0 0.2695,-0.026 0.3985,-0.082 0.507,-0.22 0.7376,-0.8094 0.5176,-1.3164 l -1.0059,-2.31641 c 2.395,-1.103 4.6195,-2.37158 6.6055,-3.76758 0.556,0.795 1.0916,1.6476 1.5976,2.5586 0.269,0.483 0.8744,0.65762 1.3594,0.39062 0.482,-0.268 0.6567,-0.87637 0.3887,-1.35937 -0.551,-0.994 -1.1353,-1.92211 -1.7403,-2.78711 1.534,-1.215 2.8863,-2.50289 4.0293,-3.83789 z m -23.1152,2.13086 c -0.765,2.256 -0.9591,5.02442 -0.5371,8.10742 -1.648,0.251 -3.2318,0.36012 -4.7188,0.32812 0.152,-0.501 0.3119,-1.00019 0.5059,-1.49219 1.059,-2.689 2.693,-5.03335 4.75,-6.94335 z m 26.2754,6.00781 c -0.1299,10e-4 -0.2619,0.0287 -0.3887,0.084 -0.507,0.22 -0.7395,0.80846 -0.5195,1.31446 l 0.7969,1.83398 c 0.163,0.377 0.5309,0.60156 0.9179,0.60156 0.133,0 0.2695,-0.026 0.3985,-0.082 0.507,-0.22 0.7375,-0.81041 0.5175,-1.31641 l -0.7968,-1.83398 c -0.165,-0.3795 -0.5362,-0.60527 -0.9258,-0.60156 z m -4.586,1.99414 c -0.1298,0.001 -0.2619,0.0287 -0.3886,0.084 -0.507,0.219 -0.7396,0.80846 -0.5196,1.31446 l 0.7989,1.83398 c 0.164,0.376 0.5309,0.60156 0.9179,0.60156 0.133,0 0.2675,-0.026 0.3965,-0.082 0.507,-0.22 0.7396,-0.8104 0.5196,-1.3164 l -0.7989,-1.83399 c -0.165,-0.3795 -0.5362,-0.60555 -0.9258,-0.60156 z m -4.5839,1.99219 c -0.1301,10e-4 -0.2629,0.0287 -0.3907,0.084 -0.506,0.22 -0.7375,0.81041 -0.5175,1.31641 l 0.7988,1.83398 c 0.164,0.376 0.531,0.60156 0.918,0.60156 0.133,0 0.2674,-0.026 0.3964,-0.082 0.507,-0.22 0.7396,-0.8104 0.5196,-1.3164 l -0.7989,-1.83594 c -0.1657,-0.3795 -0.5355,-0.60555 -0.9257,-0.60156 z m -4.586,1.99414 c -0.1298,10e-4 -0.2619,0.0285 -0.3886,0.084 -0.507,0.22 -0.7376,0.80845 -0.5176,1.31445 l 0.7969,1.83399 c 0.163,0.377 0.5309,0.60351 0.9179,0.60351 0.133,0 0.2675,-0.028 0.3965,-0.084 0.507,-0.22 0.7395,-0.80845 0.5195,-1.31445 l -0.7968,-1.83399 c -0.165,-0.3795 -0.5382,-0.60736 -0.9278,-0.60351 z m -4.5859,1.99414 c -0.1298,10e-4 -0.2619,0.0285 -0.3887,0.084 -0.507,0.22 -0.7376,0.81041 -0.5176,1.31641 l 0.7969,1.83398 c 0.164,0.376 0.531,0.60156 0.918,0.60156 0.133,0 0.2684,-0.028 0.3984,-0.084 0.506,-0.22 0.7376,-0.80845 0.5176,-1.31445 l -0.7969,-1.83594 c -0.1657,-0.37875 -0.5384,-0.60545 -0.9277,-0.60156 z m -4.584,1.99218 c -0.1299,10e-4 -0.2617,0.0285 -0.3887,0.084 -0.507,0.22 -0.7395,0.81041 -0.5195,1.31641 l 0.7988,1.83398 c 0.164,0.376 0.531,0.60156 0.918,0.60156 0.133,0 0.2675,-0.026 0.3965,-0.082 0.507,-0.22 0.7395,-0.81041 0.5195,-1.31641 l -0.7988,-1.83398 c -0.165,-0.3795 -0.5361,-0.60764 -0.9258,-0.60352 z m -4.5859,1.9961 c -0.13,0.001 -0.262,0.0268 -0.3887,0.082 -0.507,0.22 -0.7376,0.81041 -0.5176,1.31641 l 0.7969,1.83398 c 0.163,0.377 0.531,0.60156 0.918,0.60156 0.133,0 0.2674,-0.028 0.3964,-0.084 0.507,-0.22 0.7396,-0.80845 0.5196,-1.31445 l -0.7969,-1.83399 c -0.1642,-0.3795 -0.5379,-0.60526 -0.9277,-0.60156 z m 32.3496,1.40625 c -0.153,0.501 -0.3138,1.00019 -0.5078,1.49219 -1.059,2.689 -2.693,5.03336 -4.75,6.94336 0.764,-2.257 0.9581,-5.02443 0.5371,-8.10743 1.648,-0.251 3.2337,-0.36112 4.7207,-0.32812 z m -6.7012,0.68945 c 0.647,4.959 -0.4409,8.97719 -3.0449,10.74219 l -3.7539,-8.63086 c 2.268,-0.923 4.5658,-1.63633 6.7988,-2.11133 z m -8.6309,2.9082 3.752,8.63086 c -3.066,0.701 -6.7466,-1.24265 -9.9336,-5.09765 1.87,-1.309 3.9596,-2.50421 6.1816,-3.53321 z m -7.8007,4.73633 c 1.966,2.411 4.1249,4.15377 6.2949,5.13477 -2.798,0.201 -5.6256,-0.20272 -8.3106,-1.26172 -0.493,-0.194 -0.9675,-0.41939 -1.4375,-0.65039 0.988,-1.108 2.1472,-2.18966 3.4532,-3.22266 z m 5.9472,13.19532 h 2 v 4 h -2 z m -11.8105,6 h 10.8105 4 11.1895 c 1.565,0 3.061,0.748 4,2 h -34 c 0.939,-1.252 2.435,-2 4,-2 z" />
  </g>
</svg>
