<?xml version="1.0" encoding="UTF-8" standalone="no"?>
<svg
   xmlns:dc="http://purl.org/dc/elements/1.1/"
   xmlns:cc="http://creativecommons.org/ns#"
   xmlns:rdf="http://www.w3.org/1999/02/22-rdf-syntax-ns#"
   xmlns:svg="http://www.w3.org/2000/svg"
   xmlns="http://www.w3.org/2000/svg"
   xmlns:sodipodi="http://sodipodi.sourceforge.net/DTD/sodipodi-0.dtd"
   xmlns:inkscape="http://www.inkscape.org/namespaces/inkscape"
   width="27.758392"
   height="22.874994"
   viewBox="0 0 27.758392 22.874994"
   version="1.1"
   id="svg4"
   sodipodi:docname="Area_Chart.svg"
   inkscape:version="0.92.2 (unknown)">
  <metadata
     id="metadata10">
    <rdf:RDF>
      <cc:Work
         rdf:about="">
        <dc:format>image/svg+xml</dc:format>
        <dc:type
           rdf:resource="http://purl.org/dc/dcmitype/StillImage" />
      </cc:Work>
    </rdf:RDF>
  </metadata>
  <defs
     id="defs8" />
  <sodipodi:namedview
     pagecolor="#ffffff"
     bordercolor="#666666"
     borderopacity="1"
     objecttolerance="10"
     gridtolerance="10"
     guidetolerance="10"
     inkscape:pageopacity="0"
     inkscape:pageshadow="2"
     inkscape:window-width="768"
     inkscape:window-height="480"
     id="namedview6"
     showgrid="false"
     inkscape:zoom="4.72"
     inkscape:cx="2.755336"
     inkscape:cy="25.156245"
     inkscape:window-x="974"
     inkscape:window-y="279"
     inkscape:window-maximized="0"
     inkscape:current-layer="svg4" />
  <path
     style="line-height:normal;-inkscape-font-specification:'Bitstream Vera Sans';text-indent:0;text-align:start;text-transform:none;stroke-width:0.51501542"
     d="M 27.756695,0 26.785233,0.985476 20.34929,7.435868 12.924538,5.61423 12.664324,5.5545 12.438806,5.688883 4.875273,10.332568 0.69451203,9.436681 6.1002969e-4,9.287365 v 0.61219 4.165879 0.61219 0.07466 a 0.55517724,0.47785457 0 0 0 0,0.04479 v 7.600114 0.477807 H 0.55573103 27.201574 27.756695 V 22.397193 9.09326 a 0.55517724,0.47785457 0 0 0 0,-0.07466 V 7.973397 1.299034 Z m -1.110243,2.583143 v 2.538349 2.86684 0.806299 l -4.007285,2.956429 -2.671523,-0.82123 c 0.0051,-0.02593 0.01735,-0.04749 0.01735,-0.07466 0,-0.263885 -0.248537,-0.477807 -0.555122,-0.477807 -0.2026,0 -0.371453,0.09939 -0.468384,0.238904 L 15.179721,9.451613 14.988898,9.391883 c -0.01844,-0.24953 -0.260559,-0.447944 -0.555122,-0.447944 -0.306586,0 -0.555122,0.213922 -0.555122,0.477806 0,0.230254 0.199137,0.402689 0.451038,0.447945 L 9.194815,16.051315 4.996707,15.140496 c -0.0095,-0.256729 -0.254548,-0.462875 -0.555121,-0.462875 -0.202601,0 -0.371454,0.09938 -0.468385,0.238903 l -2.862346,-0.61219 v -1.53794 c 0.306585,0 0.555121,-0.213922 0.555121,-0.477807 0,-0.263886 -0.248536,-0.477807 -0.555121,-0.477807 v -1.299038 l 1.144938,0.238904 c -0.01017,0.03612 -0.03469,0.06571 -0.03469,0.104518 0,0.263886 0.248536,0.477807 0.555121,0.477807 0.255488,0 0.455798,-0.156125 0.520426,-0.358355 l 1.56128,0.343423 0.260214,0.05973 0.208171,-0.134383 0.294908,-0.179178 c 0.09163,0.155346 0.269462,0.268767 0.485731,0.268767 0.306586,0 0.555123,-0.213921 0.555123,-0.477807 0,-0.131942 -0.05567,-0.256958 -0.156128,-0.343424 l 1.0582,-0.656983 c 0.06641,0.02418 0.131525,0.04479 0.208171,0.04479 0.306585,0 0.555121,-0.213921 0.555121,-0.477807 0,-0.01035 7.53e-4,-0.01967 0,-0.02986 l 4.54506,-2.792183 1.144938,0.283697 c 0.101451,0.09485 0.254749,0.149315 0.416341,0.149315 0.03907,0 0.06729,-0.02325 0.104084,-0.02986 l 4.371583,1.075065 c 0.05258,0.216817 0.252917,0.388218 0.520428,0.388218 0.161592,0 0.314894,-0.05447 0.416341,-0.149314 l 0.537773,0.134383 0.346952,0.07466 0.225518,-0.223972 z m 0,5.405189 c 0,-0.263886 -0.248536,-0.477807 -0.555121,-0.477807 -0.306586,0 -0.555122,0.213921 -0.555122,0.477807 0,0.263886 0.248536,0.477807 0.555122,0.477807 0.306585,0 0.555121,-0.213921 0.555121,-0.477807 z m 0,-2.86684 c 0,-0.263886 -0.248536,-0.477807 -0.555121,-0.477807 -0.306586,0 -0.555122,0.213921 -0.555122,0.477807 0,0.263885 0.248536,0.477806 0.555122,0.477806 0.306585,0 0.555121,-0.213921 0.555121,-0.477806 z m -2.220487,0.955613 c -0.306585,0 -0.555121,0.213921 -0.555121,0.477807 0,0.263886 0.248536,0.477807 0.555121,0.477807 0.306586,0 0.555123,-0.213921 0.555123,-0.477807 0,-0.263886 -0.248537,-0.477807 -0.555123,-0.477807 z m -11.657556,1.43342 c -0.306585,0 -0.555121,0.213921 -0.555121,0.477807 0,0.263886 0.248536,0.477807 0.555121,0.477807 0.306586,0 0.555122,-0.213921 0.555122,-0.477807 0,-0.263886 -0.248536,-0.477807 -0.555122,-0.477807 z m 3.33073,0 c -0.306585,0 -0.555121,0.213921 -0.555121,0.477807 0,0.263886 0.248536,0.477807 0.555121,0.477807 0.306586,0 0.555122,-0.213921 0.555122,-0.477807 0,-0.263886 -0.248536,-0.477807 -0.555122,-0.477807 z m 6.661462,0 c -0.306586,0 -0.555123,0.213921 -0.555123,0.477807 0,0.263886 0.248537,0.477807 0.555123,0.477807 0.306584,0 0.555121,-0.213921 0.555121,-0.477807 0,-0.263886 -0.248537,-0.477807 -0.555121,-0.477807 z M 11.103044,8.943946 c -0.306586,0 -0.555122,0.213922 -0.555122,0.477806 0,0.263886 0.248536,0.477807 0.555122,0.477807 0.306585,0 0.555121,-0.213921 0.555121,-0.477807 0,-0.263884 -0.248536,-0.477806 -0.555121,-0.477806 z m 6.661461,0 c -0.306585,0 -0.555123,0.213922 -0.555123,0.477806 0,0.263886 0.248538,0.477807 0.555123,0.477807 0.306586,0 0.555122,-0.213921 0.555122,-0.477807 0,-0.263884 -0.248536,-0.477806 -0.555122,-0.477806 z m 3.33073,0 c -0.306585,0 -0.555121,0.213922 -0.555121,0.477806 0,0.263886 0.248536,0.477807 0.555121,0.477807 0.306586,0 0.555122,-0.213921 0.555122,-0.477807 0,-0.263884 -0.248536,-0.477806 -0.555122,-0.477806 z m 3.33073,0 c -0.306585,0 -0.555121,0.213922 -0.555121,0.477806 0,0.263886 0.248536,0.477807 0.555121,0.477807 0.306586,0 0.555123,-0.213921 0.555123,-0.477807 0,-0.263884 -0.248537,-0.477806 -0.555123,-0.477806 z m 2.220487,1.104928 V 21.919386 H 1.110853 v -6.629568 l 8.188046,1.761911 0.364298,0.07466 0.225518,-0.253834 5.308351,-6.405599 7.372711,2.269583 0.312256,0.08959 0.242866,-0.179178 z M 9.437678,10.377366 c -0.306584,0 -0.555121,0.213922 -0.555121,0.477807 0,0.263886 0.248537,0.477807 0.555121,0.477807 0.306586,0 0.555123,-0.213921 0.555123,-0.477807 0,-0.263885 -0.248537,-0.477807 -0.555123,-0.477807 z m 3.330731,0 c -0.306585,0 -0.555121,0.213922 -0.555121,0.477807 0,0.263886 0.248536,0.477807 0.555121,0.477807 0.306586,0 0.555122,-0.213921 0.555122,-0.477807 0,-0.263885 -0.248536,-0.477807 -0.555122,-0.477807 z m 9.992192,0 c -0.306586,0 -0.555123,0.213922 -0.555123,0.477807 0,0.263886 0.248537,0.477807 0.555123,0.477807 0.306584,0 0.555121,-0.213921 0.555121,-0.477807 0,-0.263885 -0.248537,-0.477807 -0.555121,-0.477807 z m -18.319017,1.43342 c -0.306586,0 -0.555123,0.213922 -0.555123,0.477807 0,0.263886 0.248537,0.477807 0.555123,0.477807 0.306584,0 0.555121,-0.213921 0.555121,-0.477807 0,-0.263885 -0.248537,-0.477807 -0.555121,-0.477807 z m 3.33073,0 c -0.306586,0 -0.555122,0.213922 -0.555122,0.477807 0,0.263886 0.248536,0.477807 0.555122,0.477807 0.306585,0 0.555121,-0.213921 0.555121,-0.477807 0,-0.263885 -0.248536,-0.477807 -0.555121,-0.477807 z m 3.33073,0 c -0.306586,0 -0.555122,0.213922 -0.555122,0.477807 0,0.263886 0.248536,0.477807 0.555122,0.477807 0.306585,0 0.555121,-0.213921 0.555121,-0.477807 0,-0.263885 -0.248536,-0.477807 -0.555121,-0.477807 z m -8.326826,1.433421 c -0.306585,0 -0.555121,0.213922 -0.555121,0.477806 0,0.263886 0.248536,0.477807 0.555121,0.477807 0.306586,0 0.555122,-0.213921 0.555122,-0.477807 0,-0.263884 -0.248536,-0.477806 -0.555122,-0.477806 z m 3.33073,0 c -0.306585,0 -0.555121,0.213922 -0.555121,0.477806 0,0.263886 0.248536,0.477807 0.555121,0.477807 0.306586,0 0.555123,-0.213921 0.555123,-0.477807 0,-0.263884 -0.248537,-0.477806 -0.555123,-0.477806 z m 3.33073,0 c -0.306584,0 -0.555121,0.213922 -0.555121,0.477806 0,0.263886 0.248537,0.477807 0.555121,0.477807 0.306586,0 0.555123,-0.213921 0.555123,-0.477807 0,-0.263884 -0.248537,-0.477806 -0.555123,-0.477806 z m -1.665364,1.433421 c -0.306586,0 -0.555122,0.213921 -0.555122,0.477807 0,0.263884 0.248536,0.477806 0.555122,0.477806 0.306585,0 0.555121,-0.213922 0.555121,-0.477806 0,-0.263886 -0.248536,-0.477807 -0.555121,-0.477807 z"
     id="path2"
     inkscape:connector-curvature="0" />
</svg>
