<?xml version="1.0" encoding="UTF-8" standalone="no"?>
<!-- Generator: Adobe Illustrator 13.0.2, SVG Export Plug-In . SVG Version: 6.00 Build 14948)  -->

<svg
   xmlns:dc="http://purl.org/dc/elements/1.1/"
   xmlns:cc="http://creativecommons.org/ns#"
   xmlns:rdf="http://www.w3.org/1999/02/22-rdf-syntax-ns#"
   xmlns:svg="http://www.w3.org/2000/svg"
   xmlns="http://www.w3.org/2000/svg"
   xmlns:sodipodi="http://sodipodi.sourceforge.net/DTD/sodipodi-0.dtd"
   xmlns:inkscape="http://www.inkscape.org/namespaces/inkscape"
   version="1.0"
   id="Layer_1"
   x="0px"
   y="0px"
   width="64px"
   height="64px"
   viewBox="5.5 -3.5 64 64"
   enable-background="new 5.5 -3.5 64 64"
   xml:space="preserve"
   sodipodi:docname="cc_grey.svg"
   inkscape:version="0.92.2 (unknown)"><metadata
     id="metadata13"><rdf:RDF><cc:Work
         rdf:about=""><dc:format>image/svg+xml</dc:format><dc:type
           rdf:resource="http://purl.org/dc/dcmitype/StillImage" /><dc:title></dc:title></cc:Work></rdf:RDF></metadata><defs
     id="defs11" /><sodipodi:namedview
     pagecolor="#ffffff"
     bordercolor="#666666"
     borderopacity="1"
     objecttolerance="10"
     gridtolerance="10"
     guidetolerance="10"
     inkscape:pageopacity="0"
     inkscape:pageshadow="2"
     inkscape:window-width="1920"
     inkscape:window-height="1001"
     id="namedview9"
     showgrid="false"
     inkscape:zoom="3.6875"
     inkscape:cx="32"
     inkscape:cy="32"
     inkscape:window-x="0"
     inkscape:window-y="27"
     inkscape:window-maximized="1"
     inkscape:current-layer="Layer_1" /><g
     id="g6"><circle
       fill="#FFFFFF"
       cx="37.785"
       cy="28.501"
       r="28.836"
       id="circle2" /><path
       d="M37.441-3.5c8.951,0,16.572,3.125,22.857,9.372c3.008,3.009,5.295,6.448,6.857,10.314   c1.561,3.867,2.344,7.971,2.344,12.314c0,4.381-0.773,8.486-2.314,12.313c-1.543,3.828-3.82,7.21-6.828,10.143   c-3.123,3.085-6.666,5.448-10.629,7.086c-3.961,1.638-8.057,2.457-12.285,2.457s-8.276-0.808-12.143-2.429   c-3.866-1.618-7.333-3.961-10.4-7.027c-3.067-3.066-5.4-6.524-7-10.372S5.5,32.767,5.5,28.5c0-4.229,0.809-8.295,2.428-12.2   c1.619-3.905,3.972-7.4,7.057-10.486C21.08-0.394,28.565-3.5,37.441-3.5z M37.557,2.272c-7.314,0-13.467,2.553-18.458,7.657   c-2.515,2.553-4.448,5.419-5.8,8.6c-1.354,3.181-2.029,6.505-2.029,9.972c0,3.429,0.675,6.734,2.029,9.913   c1.353,3.183,3.285,6.021,5.8,8.516c2.514,2.496,5.351,4.399,8.515,5.715c3.161,1.314,6.476,1.971,9.943,1.971   c3.428,0,6.75-0.665,9.973-1.999c3.219-1.335,6.121-3.257,8.713-5.771c4.99-4.876,7.484-10.99,7.484-18.344   c0-3.543-0.648-6.895-1.943-10.057c-1.293-3.162-3.18-5.98-5.654-8.458C50.984,4.844,44.795,2.272,37.557,2.272z M37.156,23.187   l-4.287,2.229c-0.458-0.951-1.019-1.619-1.685-2c-0.667-0.38-1.286-0.571-1.858-0.571c-2.856,0-4.286,1.885-4.286,5.657   c0,1.714,0.362,3.084,1.085,4.113c0.724,1.029,1.791,1.544,3.201,1.544c1.867,0,3.181-0.915,3.944-2.743l3.942,2   c-0.838,1.563-2,2.791-3.486,3.686c-1.484,0.896-3.123,1.343-4.914,1.343c-2.857,0-5.163-0.875-6.915-2.629   c-1.752-1.752-2.628-4.19-2.628-7.313c0-3.048,0.886-5.466,2.657-7.257c1.771-1.79,4.009-2.686,6.715-2.686   C32.604,18.558,35.441,20.101,37.156,23.187z M55.613,23.187l-4.229,2.229c-0.457-0.951-1.02-1.619-1.686-2   c-0.668-0.38-1.307-0.571-1.914-0.571c-2.857,0-4.287,1.885-4.287,5.657c0,1.714,0.363,3.084,1.086,4.113   c0.723,1.029,1.789,1.544,3.201,1.544c1.865,0,3.18-0.915,3.941-2.743l4,2c-0.875,1.563-2.057,2.791-3.541,3.686   c-1.486,0.896-3.105,1.343-4.857,1.343c-2.896,0-5.209-0.875-6.941-2.629c-1.736-1.752-2.602-4.19-2.602-7.313   c0-3.048,0.885-5.466,2.658-7.257c1.77-1.79,4.008-2.686,6.713-2.686C51.117,18.558,53.938,20.101,55.613,23.187z"
       id="path4" /></g><path
     style="fill:#4d4d4d;stroke-width:0.27118644"
     d="M 29.315254,63.686188 C 21.894903,63.144361 15.066377,59.935707 9.5110969,54.380428 3.771459,48.640789 0.61385749,41.563902 0.2438442,33.610446 -0.17315666,24.646993 2.8046359,16.646834 9.0153812,10.044773 15.800662,2.8319775 24.473707,-0.43253596 34.874576,0.31143355 44.935607,1.0310946 54.092556,6.7311826 59.474633,15.624668 c 6.356217,10.50318 5.698067,25.329575 -1.556537,35.064739 -2.81124,3.772486 -7.568759,7.751393 -11.789282,9.859862 -4.949402,2.472597 -10.845766,3.572686 -16.81356,3.136919 z m 9.154267,-6.306695 C 46.98272,55.219943 54.171227,48.809752 56.887978,40.955249 58.507957,36.271664 58.746847,30.293044 57.510929,25.364946 55.356968,16.776255 48.387854,9.400205 39.996301,6.8276176 35.690902,5.5077169 29.586405,5.3688559 25.247458,6.4921212 16.070745,8.8677858 8.5946359,16.73284 6.21769,26.511915 5.6269063,28.942479 5.6121128,34.70867 6.1900312,37.292616 c 2.1368358,9.55405 9.8879368,17.659503 19.1854358,20.062522 4.251429,1.09882 8.824858,1.107324 13.094054,0.02435 z"
     id="path15"
     inkscape:connector-curvature="0"
     transform="translate(5.5,-3.5)" /><path
     style="fill:#4d4d4d;stroke-width:0.27118644"
     d="m 19.960783,41.326116 c -4.152417,-1.506424 -6.147666,-4.869917 -5.917519,-9.975467 0.178182,-3.952782 1.73887,-6.547907 4.966905,-8.259018 1.218849,-0.646085 1.643809,-0.718649 4.20339,-0.717757 2.40757,8.4e-4 3.065884,0.09961 4.26136,0.639337 1.271782,0.574181 3.874234,2.919856 3.874234,3.491975 0,0.122835 -0.895351,0.666368 -1.989669,1.207851 l -1.989668,0.984514 -0.446951,-0.756628 c -0.890845,-1.50808 -3.381222,-2.074343 -5.24117,-1.19174 -2.633791,1.249815 -3.051194,7.684236 -0.647846,9.986789 0.671029,0.642887 1.116059,0.809883 2.40714,0.903271 1.873317,0.135504 3.109516,-0.381912 3.79619,-1.58891 0.248026,-0.435967 0.57299,-0.787517 0.722143,-0.781223 0.149153,0.0063 1.045729,0.409862 1.992393,0.896817 l 1.721206,0.885373 -1.398471,1.530151 c -1.984551,2.171415 -3.780409,2.994737 -6.767781,3.102731 -1.651162,0.05969 -2.681014,-0.04431 -3.545886,-0.358066 z"
     id="path17"
     inkscape:connector-curvature="0"
     transform="translate(5.5,-3.5)" /><path
     style="fill:#4d4d4d;stroke-width:0.27118644"
     d="m 38.549827,41.313219 c -3.726219,-1.143432 -5.790629,-4.055614 -6.051354,-8.536407 -0.261679,-4.497202 1.515454,-7.920721 4.995415,-9.623308 3.87801,-1.897333 9.600229,-0.692438 11.724894,2.468845 0.357109,0.531342 0.601177,1.003409 0.542372,1.049037 -0.0588,0.04563 -0.925855,0.526088 -1.926779,1.067686 l -1.819863,0.984725 -0.574399,-0.806668 c -0.754616,-1.059761 -1.870406,-1.612044 -3.256848,-1.612044 -1.612684,0 -2.777568,0.651768 -3.53151,1.975924 -0.886084,1.556241 -0.949641,5.443784 -0.116162,7.105243 0.754358,1.503738 2.050985,2.308663 3.718949,2.308663 1.616469,0 2.262543,-0.296857 3.354242,-1.541203 l 0.835902,-0.952783 1.819679,0.917367 1.819678,0.917367 -0.750455,0.962808 c -2.513233,3.224391 -6.792086,4.539639 -10.783761,3.314748 z"
     id="path19"
     inkscape:connector-curvature="0"
     transform="translate(5.5,-3.5)" /></svg>