<?xml version="1.0"?>
<svg xmlns="http://www.w3.org/2000/svg" viewBox="0 0 64 64">
    <path d="M 27 4 C 24.243 4 22 6.243 22 9 L 22 12 L 3 12 C 1.346 12 0 13.346 0 15 L 0 55 C 0 56.654 1.346 58 3 58 L 61 58 C 62.654 58 64 56.654 64 55 L 64 15 C 64 13.346 62.654 12 61 12 L 42 12 L 42 9 C 42 6.243 39.757 4 37 4 L 27 4 z M 27 6 L 37 6 C 38.654 6 40 7.346 40 9 L 40 12 L 38 12 L 38 10 C 38 8.897 37.103 8 36 8 L 28 8 C 26.897 8 26 8.897 26 10 L 26 12 L 24 12 L 24 9 C 24 7.346 25.346 6 27 6 z M 28 10 L 36 10 L 36 12 L 28 12 L 28 10 z M 3 14 L 10 14 C 10 14.552 10.448 15 11 15 L 13 15 C 13.552 15 14 14.552 14 14 L 22 14 L 26 14 L 38 14 L 42 14 L 50 14 C 50 14.552 50.448 15 51 15 L 53 15 C 53.552 15 54 14.552 54 14 L 61 14 C 61.551 14 62 14.449 62 15 L 62 55 C 62 55.551 61.551 56 61 56 L 3 56 C 2.449 56 2 55.551 2 55 L 2 15 C 2 14.449 2.449 14 3 14 z M 11 18 C 10.448 18 10 18.448 10 19 C 10 19.552 10.448 20 11 20 L 13 20 C 13.552 20 14 19.552 14 19 C 14 18.448 13.552 18 13 18 L 11 18 z M 51 18 C 50.448 18 50 18.448 50 19 C 50 19.552 50.448 20 51 20 L 53 20 C 53.552 20 54 19.552 54 19 C 54 18.448 53.552 18 53 18 L 51 18 z M 11 23 C 10.448 23 10 23.448 10 24 C 10 24.552 10.448 25 11 25 L 13 25 C 13.552 25 14 24.552 14 24 C 14 23.448 13.552 23 13 23 L 11 23 z M 51 23 C 50.448 23 50 23.448 50 24 C 50 24.552 50.448 25 51 25 L 53 25 C 53.552 25 54 24.552 54 24 C 54 23.448 53.552 23 53 23 L 51 23 z M 36.277344 25.816406 C 36.148891 25.796797 36.015109 25.803891 35.880859 25.837891 C 35.548859 25.921891 35.223203 26.040406 34.908203 26.191406 C 32.351203 27.427406 31.276719 30.512359 32.511719 33.068359 C 33.110719 34.306359 34.156078 35.238406 35.455078 35.691406 C 36.010078 35.884406 36.581344 35.980469 37.152344 35.980469 C 37.918344 35.980469 38.680625 35.807844 39.390625 35.464844 C 41.234625 34.572844 42.374875 32.674906 42.296875 30.628906 C 42.275875 30.076906 41.818766 29.663969 41.259766 29.667969 C 40.707766 29.688969 40.277828 30.153078 40.298828 30.705078 C 40.346828 31.957078 39.647531 33.119063 38.519531 33.664062 C 37.761531 34.030062 36.908281 34.080734 36.113281 33.802734 C 35.319281 33.525734 34.6785 32.957219 34.3125 32.199219 C 33.5575 30.636219 34.215344 28.747187 35.777344 27.992188 C 35.970344 27.899188 36.171047 27.826391 36.373047 27.775391 C 36.909047 27.639391 37.231703 27.095547 37.095703 26.560547 C 36.993703 26.159297 36.662703 25.875234 36.277344 25.816406 z M 39.384766 26.259766 C 38.998281 26.208859 38.602578 26.386391 38.392578 26.744141 C 38.113578 27.220141 38.272047 27.833281 38.748047 28.113281 C 38.966047 28.241281 39.168609 28.396266 39.349609 28.572266 C 39.543609 28.761266 39.794875 28.855469 40.046875 28.855469 C 40.306875 28.855469 40.567672 28.755688 40.763672 28.554688 C 41.149672 28.159688 41.140141 27.526625 40.744141 27.140625 C 40.448141 26.851625 40.118719 26.597672 39.761719 26.388672 C 39.642469 26.318922 39.513594 26.276734 39.384766 26.259766 z M 11 28 C 10.448 28 10 28.448 10 29 C 10 29.552 10.448 30 11 30 L 13 30 C 13.552 30 14 29.552 14 29 C 14 28.448 13.552 28 13 28 L 11 28 z M 51 28 C 50.448 28 50 28.448 50 29 C 50 29.552 50.448 30 51 30 L 53 30 C 53.552 30 54 29.552 54 29 C 54 28.448 53.552 28 53 28 L 51 28 z M 52.578125 31.820312 C 52.449625 31.840438 52.325891 31.885578 52.212891 31.955078 L 38.353516 40.425781 C 37.882516 40.713781 37.733484 41.328781 38.021484 41.800781 L 40.412109 45.714844 C 40.550109 45.940844 40.77325 46.101063 41.03125 46.164062 C 41.10825 46.183062 41.187625 46.193359 41.265625 46.193359 C 41.448625 46.193359 41.629109 46.143875 41.787109 46.046875 L 55.646484 37.574219 C 56.117484 37.286219 56.266516 36.671219 55.978516 36.199219 L 53.585938 32.287109 C 53.448937 32.061109 53.22675 31.897938 52.96875 31.835938 C 52.83975 31.804938 52.706625 31.800187 52.578125 31.820312 z M 11 33 C 10.448 33 10 33.448 10 34 C 10 34.552 10.448 35 11 35 L 13 35 C 13.552 35 14 34.552 14 34 C 14 33.448 13.552 33 13 33 L 11 33 z M 52.402344 34.183594 L 53.751953 36.390625 L 41.597656 43.816406 L 40.248047 41.609375 L 52.402344 34.183594 z M 11 38 C 10.448 38 10 38.448 10 39 C 10 39.552 10.448 40 11 40 L 13 40 C 13.552 40 14 39.552 14 39 C 14 38.448 13.552 38 13 38 L 11 38 z M 11 43 C 10.448 43 10 43.448 10 44 C 10 44.552 10.448 45 11 45 L 13 45 C 13.552 45 14 44.552 14 44 C 14 43.448 13.552 43 13 43 L 11 43 z M 51 43 C 50.448 43 50 43.448 50 44 C 50 44.552 50.448 45 51 45 L 53 45 C 53.552 45 54 44.552 54 44 C 54 43.448 53.552 43 53 43 L 51 43 z M 11 48 C 10.448 48 10 48.448 10 49 C 10 49.552 10.448 50 11 50 L 13 50 C 13.552 50 14 49.552 14 49 C 14 48.448 13.552 48 13 48 L 11 48 z M 51 48 C 50.448 48 50 48.448 50 49 C 50 49.552 50.448 50 51 50 L 53 50 C 53.552 50 54 49.552 54 49 C 54 48.448 53.552 48 53 48 L 51 48 z M 4 52 C 3.448 52 3 52.448 3 53 C 3 53.552 3.448 54 4 54 L 59 54 C 59.552 54 60 53.552 60 53 C 60 52.448 59.552 52 59 52 L 4 52 z"/>
</svg>
