<?xml version="1.0" encoding="UTF-8" standalone="no"?>
<!-- Generated by IcoMoon.io -->

<svg
   xmlns:dc="http://purl.org/dc/elements/1.1/"
   xmlns:cc="http://creativecommons.org/ns#"
   xmlns:rdf="http://www.w3.org/1999/02/22-rdf-syntax-ns#"
   xmlns:svg="http://www.w3.org/2000/svg"
   xmlns="http://www.w3.org/2000/svg"
   xmlns:sodipodi="http://sodipodi.sourceforge.net/DTD/sodipodi-0.dtd"
   xmlns:inkscape="http://www.inkscape.org/namespaces/inkscape"
   version="1.1"
   width="512"
   height="512"
   viewBox="0 0 512 512"
   id="svg7"
   sodipodi:docname="logo.svg"
   inkscape:version="0.92.2 (unknown)">
  <metadata
     id="metadata13">
    <rdf:RDF>
      <cc:Work
         rdf:about="">
        <dc:format>image/svg+xml</dc:format>
        <dc:type
           rdf:resource="http://purl.org/dc/dcmitype/StillImage" />
        <dc:title></dc:title>
      </cc:Work>
    </rdf:RDF>
  </metadata>
  <defs
     id="defs11" />
  <sodipodi:namedview
     pagecolor="#ffffff"
     bordercolor="#666666"
     borderopacity="1"
     objecttolerance="10"
     gridtolerance="10"
     guidetolerance="10"
     inkscape:pageopacity="0"
     inkscape:pageshadow="2"
     inkscape:window-width="1920"
     inkscape:window-height="1001"
     id="namedview9"
     showgrid="false"
     inkscape:zoom="0.4609375"
     inkscape:cx="-135.59322"
     inkscape:cy="256"
     inkscape:window-x="0"
     inkscape:window-y="27"
     inkscape:window-maximized="1"
     inkscape:current-layer="svg7" />
  <g
     id="icomoon-ignore" />
  <path
     d="M256 0c-141.385 0-256 114.615-256 256s114.615 256 256 256 256-114.615 256-256-114.615-256-256-256zM256 480.001c-31.479 0-61.436-6.506-88.615-18.226l116.574-131.145c2.603-2.929 4.041-6.711 4.041-10.63v-48c0-8.837-7.163-16-16-16-56.495 0-116.102-58.731-116.687-59.313-3-3.001-7.070-4.687-11.313-4.687h-64c-8.836 0-16 7.164-16 16v96c0 6.061 3.424 11.601 8.845 14.311l55.155 27.578v93.943c-58.026-40.478-96-107.716-96-183.832 0-34.357 7.745-66.903 21.569-96h58.431c4.244 0 8.313-1.686 11.314-4.686l64-64c3-3.001 4.686-7.070 4.686-11.314v-38.706c20.281-6.037 41.759-9.294 64-9.294 35.203 0 68.502 8.13 98.141 22.6-2.072 1.751-4.088 3.582-6.023 5.518-18.133 18.132-28.118 42.239-28.118 67.882s9.985 49.75 28.118 67.882c18.217 18.216 42.609 28.132 67.817 28.13 1.583 0 3.171-0.040 4.759-0.118 6.907 25.901 19.376 93.328-4.202 186.167-0.222 0.872-0.348 1.744-0.421 2.612-40.662 41.54-97.35 67.328-160.071 67.328z"
     id="path5" />
  <path
     style="fill:#4d4d4d;stroke-width:2.16949153"
     d="M 233.43729,509.47467 C 131.52007,501.62091 40.045804,426.60217 11.396184,327.37712 -13.558291,240.9498 8.4105626,148.75581 69.640678,82.949565 119.27566,29.605031 183.26072,1.812444 256.18271,1.9230599 326.1373,2.029174 386.18722,26.792279 435.37601,75.817936 c 22.04572,21.972621 34.94851,39.699984 48.24433,66.283754 41.64779,83.27093 35.24549,178.08243 -17.41347,257.8759 -13.20187,20.00464 -45.01632,51.84215 -65.71873,65.76638 -51.14106,34.39696 -105.04765,48.50868 -167.05085,43.7307 z m 47.78572,-30.09514 c 47.60411,-5.8201 92.28594,-26.15459 127.20421,-57.89009 8.60118,-7.8172 9.23233,-9.26902 13.47636,-30.99865 11.23605,-57.52947 11.97342,-107.83976 2.28115,-155.64333 -2.14285,-10.5689 -2.75963,-11.38983 -8.55719,-11.38983 -19.78355,0 -45.69166,-10.15306 -61.56748,-24.12752 C 332.41279,180.27541 321.84001,156.86895 321.84001,128 c 0,-26.61777 7.77546,-46.060099 26.22481,-65.574506 l 7.64182,-8.082979 -12.44069,-5.50187 C 302.2164,30.68659 246.25421,26.241089 201.97966,37.617208 l -10.84746,2.787198 -1.08474,24.273506 -1.08475,24.273503 -34.17039,34.168355 -34.17039,34.16837 -34.1621,1.08474 -34.1621,1.08475 -5.035171,12.70356 c -13.693639,34.54859 -19.173126,82.53206 -13.481606,118.05742 8.489103,52.98736 37.240817,104.52137 76.436987,137.00421 8.70624,7.21508 16.56172,13.13311 17.45664,13.15114 0.89491,0.0173 1.62711,-21.43864 1.62711,-47.6815 V 344.97812 L 98.85568,329.72607 C 74.805231,317.67791 67.946503,313.25581 66.204776,308.67473 64.866773,305.15551 64.2558,282.92174 64.650791,252.12394 65.47443,187.90413 61.340724,193.08475 111.75928,193.08475 h 36.21419 l 20.49462,16.37417 c 11.27204,9.0058 27.81666,20.65722 36.76581,25.89205 C 223.49138,246.03075 251.01455,256 262.24182,256 c 11.1838,0 20.20543,3.91786 22.96422,9.97278 3.25355,7.14073 3.24226,53.9515 -0.0152,60.03673 -2.06506,3.85857 -91.55248,105.81227 -113.22103,128.99357 l -6.54608,7.00307 7.81587,3.26567 c 19.79826,8.27225 55.11858,15.39165 79.77926,16.08086 5.4008,0.15099 18.09232,-0.73698 28.20339,-1.97315 z"
     id="path15"
     inkscape:connector-curvature="0" />
</svg>
