<?xml version="1.0"?>
<svg xmlns="http://www.w3.org/2000/svg" width="50" height="50" viewBox="0 0 50 50">
    <path style="text-indent:0;text-align:start;line-height:normal;text-transform:none;block-progression:tb;-inkscape-font-specification:Bitstream Vera Sans" d="M 50 2.28125 L 48.25 4.34375 L 36.65625 17.84375 L 23.28125 14.03125 L 22.8125 13.90625 L 22.40625 14.1875 L 8.78125 23.90625 L 1.25 22.03125 L 0 21.71875 L 0 23 L 0 31.71875 L 0 33 L 0 33.15625 A 1.0001 1.0001 0 0 0 0 33.25 L 0 49.15625 L 0 50.15625 L 1 50.15625 L 49 50.15625 L 50 50.15625 L 50 49.15625 L 50 21.3125 A 1.0001 1.0001 0 0 0 50 21.15625 L 50 18.96875 L 50 5 L 50 2.28125 z M 48 7.6875 L 48 13 L 48 19 L 48 20.6875 L 40.78125 26.875 L 35.96875 25.15625 C 35.977864 25.101988 36 25.056853 36 25 C 36 24.447715 35.552285 24 35 24 C 34.635035 24 34.330861 24.207996 34.15625 24.5 L 27.34375 22.0625 L 27 21.9375 C 26.966769 21.41526 26.530627 21 26 21 C 25.447715 21 25 21.447715 25 22 C 25 22.481896 25.358726 22.842785 25.8125 22.9375 L 16.5625 35.875 L 9 33.96875 C 8.9829161 33.431444 8.5414556 33 8 33 C 7.6350348 33 7.3308608 33.207996 7.15625 33.5 L 2 32.21875 L 2 29 C 2.5522847 29 3 28.552285 3 28 C 3 27.447715 2.5522847 27 2 27 L 2 24.28125 L 4.0625 24.78125 C 4.0442265 24.856854 4 24.918782 4 25 C 4 25.552285 4.4477153 26 5 26 C 5.4602373 26 5.8210778 25.673247 5.9375 25.25 L 8.75 25.96875 L 9.21875 26.09375 L 9.59375 25.8125 L 10.125 25.4375 C 10.290069 25.762623 10.61041 26 11 26 C 11.552285 26 12 25.552285 12 25 C 12 24.723858 11.899714 24.462214 11.71875 24.28125 L 13.625 22.90625 C 13.744638 22.956853 13.861929 23 14 23 C 14.552285 23 15 22.552285 15 22 C 15 21.978342 15.001356 21.958816 15 21.9375 L 23.1875 16.09375 L 25.25 16.6875 C 25.432749 16.886009 25.708907 17 26 17 C 26.070389 17 26.121218 16.951335 26.1875 16.9375 L 34.0625 19.1875 C 34.157215 19.641274 34.518104 20 35 20 C 35.291093 20 35.567251 19.886009 35.75 19.6875 L 36.71875 19.96875 L 37.34375 20.125 L 37.75 19.65625 L 48 7.6875 z M 48 19 C 48 18.447715 47.552285 18 47 18 C 46.447715 18 46 18.447715 46 19 C 46 19.552285 46.447715 20 47 20 C 47.552285 20 48 19.552285 48 19 z M 48 13 C 48 12.447715 47.552285 12 47 12 C 46.447715 12 46 12.447715 46 13 C 46 13.552285 46.447715 14 47 14 C 47.552285 14 48 13.552285 48 13 z M 44 15 C 43.447715 15 43 15.447715 43 16 C 43 16.552285 43.447715 17 44 17 C 44.552285 17 45 16.552285 45 16 C 45 15.447715 44.552285 15 44 15 z M 23 18 C 22.447715 18 22 18.447715 22 19 C 22 19.552285 22.447715 20 23 20 C 23.552285 20 24 19.552285 24 19 C 24 18.447715 23.552285 18 23 18 z M 29 18 C 28.447715 18 28 18.447715 28 19 C 28 19.552285 28.447715 20 29 20 C 29.552285 20 30 19.552285 30 19 C 30 18.447715 29.552285 18 29 18 z M 41 18 C 40.447715 18 40 18.447715 40 19 C 40 19.552285 40.447715 20 41 20 C 41.552285 20 42 19.552285 42 19 C 42 18.447715 41.552285 18 41 18 z M 20 21 C 19.447715 21 19 21.447715 19 22 C 19 22.552285 19.447715 23 20 23 C 20.552285 23 21 22.552285 21 22 C 21 21.447715 20.552285 21 20 21 z M 32 21 C 31.447715 21 31 21.447715 31 22 C 31 22.552285 31.447715 23 32 23 C 32.552285 23 33 22.552285 33 22 C 33 21.447715 32.552285 21 32 21 z M 38 21 C 37.447715 21 37 21.447715 37 22 C 37 22.552285 37.447715 23 38 23 C 38.552285 23 39 22.552285 39 22 C 39 21.447715 38.552285 21 38 21 z M 44 21 C 43.447715 21 43 21.447715 43 22 C 43 22.552285 43.447715 23 44 23 C 44.552285 23 45 22.552285 45 22 C 45 21.447715 44.552285 21 44 21 z M 48 23.3125 L 48 48.15625 L 2 48.15625 L 2 34.28125 L 16.75 37.96875 L 17.40625 38.125 L 17.8125 37.59375 L 27.375 24.1875 L 40.65625 28.9375 L 41.21875 29.125 L 41.65625 28.75 L 48 23.3125 z M 17 24 C 16.447715 24 16 24.447715 16 25 C 16 25.552285 16.447715 26 17 26 C 17.552285 26 18 25.552285 18 25 C 18 24.447715 17.552285 24 17 24 z M 23 24 C 22.447715 24 22 24.447715 22 25 C 22 25.552285 22.447715 26 23 26 C 23.552285 26 24 25.552285 24 25 C 24 24.447715 23.552285 24 23 24 z M 41 24 C 40.447715 24 40 24.447715 40 25 C 40 25.552285 40.447715 26 41 26 C 41.552285 26 42 25.552285 42 25 C 42 24.447715 41.552285 24 41 24 z M 8 27 C 7.4477153 27 7 27.447715 7 28 C 7 28.552285 7.4477153 29 8 29 C 8.5522847 29 9 28.552285 9 28 C 9 27.447715 8.5522847 27 8 27 z M 14 27 C 13.447715 27 13 27.447715 13 28 C 13 28.552285 13.447715 29 14 29 C 14.552285 29 15 28.552285 15 28 C 15 27.447715 14.552285 27 14 27 z M 20 27 C 19.447715 27 19 27.447715 19 28 C 19 28.552285 19.447715 29 20 29 C 20.552285 29 21 28.552285 21 28 C 21 27.447715 20.552285 27 20 27 z M 5 30 C 4.4477153 30 4 30.447715 4 31 C 4 31.552285 4.4477153 32 5 32 C 5.5522847 32 6 31.552285 6 31 C 6 30.447715 5.5522847 30 5 30 z M 11 30 C 10.447715 30 10 30.447715 10 31 C 10 31.552285 10.447715 32 11 32 C 11.552285 32 12 31.552285 12 31 C 12 30.447715 11.552285 30 11 30 z M 17 30 C 16.447715 30 16 30.447715 16 31 C 16 31.552285 16.447715 32 17 32 C 17.552285 32 18 31.552285 18 31 C 18 30.447715 17.552285 30 17 30 z M 14 33 C 13.447715 33 13 33.447715 13 34 C 13 34.552285 13.447715 35 14 35 C 14.552285 35 15 34.552285 15 34 C 15 33.447715 14.552285 33 14 33 z"/>
</svg>
