<?xml version="1.0" encoding="UTF-8" standalone="no"?>
<!-- Generated by IcoMoon.io -->

<svg
   xmlns:dc="http://purl.org/dc/elements/1.1/"
   xmlns:cc="http://creativecommons.org/ns#"
   xmlns:rdf="http://www.w3.org/1999/02/22-rdf-syntax-ns#"
   xmlns:svg="http://www.w3.org/2000/svg"
   xmlns="http://www.w3.org/2000/svg"
   xmlns:sodipodi="http://sodipodi.sourceforge.net/DTD/sodipodi-0.dtd"
   xmlns:inkscape="http://www.inkscape.org/namespaces/inkscape"
   version="1.1"
   width="576"
   height="512"
   viewBox="0 0 576 512"
   id="svg7"
   sodipodi:docname="bubbles.svg"
   inkscape:version="0.92.2 (unknown)">
  <metadata
     id="metadata13">
    <rdf:RDF>
      <cc:Work
         rdf:about="">
        <dc:format>image/svg+xml</dc:format>
        <dc:type
           rdf:resource="http://purl.org/dc/dcmitype/StillImage" />
      </cc:Work>
    </rdf:RDF>
  </metadata>
  <defs
     id="defs11" />
  <sodipodi:namedview
     pagecolor="#ffffff"
     bordercolor="#666666"
     borderopacity="1"
     objecttolerance="10"
     gridtolerance="10"
     guidetolerance="10"
     inkscape:pageopacity="0"
     inkscape:pageshadow="2"
     inkscape:window-width="1920"
     inkscape:window-height="1001"
     id="namedview9"
     showgrid="false"
     inkscape:zoom="0.4609375"
     inkscape:cx="-103.59322"
     inkscape:cy="-0.1628166"
     inkscape:window-x="0"
     inkscape:window-y="27"
     inkscape:window-maximized="1"
     inkscape:current-layer="svg7" />
  <title
     id="title2" />
  <g
     id="icomoon-ignore"
     transform="matrix(0.835141,0,0,0.92074795,94.958785,40.55771)" />
  <path
     d="m 472.7985,409.54956 c 0,17.92779 9.43575,33.45522 23.2015,41.05029 v 6.27986 c -3.85217,0.57289 -7.78411,0.87629 -11.78202,0.87629 -24.6545,0 -46.89169,-11.24053 -62.61579,-29.2613 -9.50609,2.75103 -19.57699,4.23648 -30.00897,4.23648 -57.66227,0 -104.40678,-45.16069 -104.40678,-100.86843 0,-55.70774 46.74451,-100.86843 104.40678,-100.86843 57.66227,0 104.40678,45.16069 104.40678,100.86843 0,21.80807 -7.16492,41.99909 -19.34281,58.49816 -2.47385,5.84093 -3.85869,12.33747 -3.85869,19.18865 z M 161.99909,141.62569 c -24.00413,21.19734 -37.2232,48.45781 -37.2232,76.76008 0,15.87811 4.05592,31.2763 12.05464,45.76511 8.24813,14.94113 20.65731,28.60014 35.88548,39.50102 11.00476,7.87719 18.40895,20.46841 20.36512,34.63175 0.65254,4.72191 1.06147,9.49109 1.2217,14.23348 2.70806,-2.44054 5.34723,-5.06154 7.93202,-7.87088 8.75639,-9.51631 20.58408,-14.77172 32.8091,-14.77172 1.94603,0 3.90148,0.1324 5.85694,0.40348 7.59413,1.04887 15.35069,1.58237 23.05432,1.58395 v 50.43422 c -9.83454,-8e-4 -19.48709,-0.68481 -28.90835,-1.98664 -39.86962,43.33323 -87.45881,51.10404 -133.47247,52.24511 v -10.60537 c 24.84591,-13.23031 46.40301,-37.32919 46.40301,-64.86943 0,-3.84324 -0.27479,-7.61635 -0.7845,-11.30672 -41.97877,-30.04933 -68.82002,-75.94841 -68.82002,-127.38736 0,-90.52548 83.10127,-163.91119 185.61206,-163.91119 100.94757,0 183.07148,71.16504 185.55259,159.78189 -14.89826,-7.21682 -31.11901,-11.59278 -47.94808,-12.8363 -4.1799,-22.09176 -16.4593,-42.87538 -35.61867,-59.79448 -12.80505,-11.30751 -27.88386,-20.24856 -44.81806,-26.5741 -18.0196,-6.72982 -37.25292,-10.1428 -57.16778,-10.1428 -19.91488,0 -39.1482,3.41298 -57.16779,10.1428 -16.9342,6.32554 -32.013,15.26579 -44.81806,26.5741 z"
     id="path5"
     inkscape:connector-curvature="0"
     style="stroke-width:0.755885" />
  <path
     style="fill:#4d4d4d;stroke-width:1.90242803"
     d="m 101.77289,427.68839 c 0.0898,-3.5491 3.35649,-6.97892 13.65719,-14.339 21.3899,-15.28355 33.33245,-35.84143 33.33245,-57.37842 0,-9.37247 -0.27227,-9.85086 -10.58641,-18.60095 C 119.18048,321.2549 102.41085,299.52664 93.48616,279.46562 83.03255,255.9679 79.91294,241.90389 79.91294,218.27408 c 0,-23.66521 3.11952,-37.69414 13.63953,-61.33883 24.29505,-54.60535 85.2261,-94.96091 151.23712,-100.16666 64.09536,-5.05467 124.16962,16.92224 162.70821,59.5234 23.64846,26.14138 40.21689,62.6696 40.21689,88.66568 v 7.08124 l -7.70028,-2.88752 c -4.23515,-1.58814 -14.48667,-4.455 -22.78115,-6.3708 l -15.08085,-3.48328 -3.23398,-10.55876 c -7.73418,-25.25164 -28.91784,-49.15347 -57.19586,-64.53487 -28.50363,-15.5041 -41.26891,-18.54223 -77.90875,-18.54223 -35.318,0 -48.91202,3.01303 -74.28509,16.46484 -27.72007,14.6961 -46.67675,34.31363 -57.38863,59.38926 -18.71647,43.81371 -5.08301,86.0093 39.85211,123.34238 12.2531,10.18014 20.174,24.35567 20.26431,36.26578 0.0875,11.54252 2.57025,12.49068 10.9226,4.17132 12.58491,-12.53515 19.70211,-14.57172 47.49892,-13.59156 l 12.22986,0.43123 v 24.78055 24.78055 l -14.59877,-1.10319 -14.59877,-1.10319 -6.69025,6.99881 c -25.03608,26.19082 -59.06207,39.81804 -111.3235,44.58443 -13.85994,1.26408 -14.04017,1.22027 -13.92372,-3.38427 z"
     id="path9"
     inkscape:connector-curvature="0" />
  <path
     style="fill:#4d4d4d;stroke-width:1.90242803"
     d="m 458.28922,452.15012 c -11.96192,-4.21768 -21.85354,-10.39618 -29.88323,-18.66563 l -5.71996,-5.89078 -13.25477,2.46489 c -61.39808,11.41768 -120.86808,-36.70476 -121.11343,-98.0036 -0.26122,-65.26463 66.5045,-114.07735 131.11512,-95.85887 20.93116,5.90204 37.10409,16.15264 50.8718,32.24317 13.10137,15.31174 17.82027,24.20112 21.80844,41.08228 5.82315,24.64825 1.48512,52.2854 -11.46393,73.03542 -3.10507,4.97568 -6.43486,12.91971 -7.39958,17.65341 -3.45177,16.93747 3.85414,37.70132 16.56953,47.0917 2.74597,2.0279 4.99502,4.81074 4.99788,6.18405 0.008,3.85605 -24.32673,2.966 -36.52787,-1.33604 z"
     id="path11"
     inkscape:connector-curvature="0" />
</svg>
