<?xml version="1.0" encoding="UTF-8" standalone="no"?>
<!-- Generated by IcoMoon.io -->

<svg
   xmlns:dc="http://purl.org/dc/elements/1.1/"
   xmlns:cc="http://creativecommons.org/ns#"
   xmlns:rdf="http://www.w3.org/1999/02/22-rdf-syntax-ns#"
   xmlns:svg="http://www.w3.org/2000/svg"
   xmlns="http://www.w3.org/2000/svg"
   xmlns:sodipodi="http://sodipodi.sourceforge.net/DTD/sodipodi-0.dtd"
   xmlns:inkscape="http://www.inkscape.org/namespaces/inkscape"
   version="1.1"
   width="576"
   height="512"
   viewBox="0 0 576 512"
   id="svg7"
   sodipodi:docname="bullhornn.svg"
   inkscape:version="0.92.2 (unknown)">
  <metadata
     id="metadata13">
    <rdf:RDF>
      <cc:Work
         rdf:about="">
        <dc:format>image/svg+xml</dc:format>
        <dc:type
           rdf:resource="http://purl.org/dc/dcmitype/StillImage" />
        <dc:title></dc:title>
      </cc:Work>
    </rdf:RDF>
  </metadata>
  <defs
     id="defs11" />
  <sodipodi:namedview
     pagecolor="#ffffff"
     bordercolor="#666666"
     borderopacity="1"
     objecttolerance="10"
     gridtolerance="10"
     guidetolerance="10"
     inkscape:pageopacity="0"
     inkscape:pageshadow="2"
     inkscape:window-width="1920"
     inkscape:window-height="1001"
     id="namedview9"
     showgrid="false"
     inkscape:zoom="0.4609375"
     inkscape:cx="-495.18644"
     inkscape:cy="-0.1628166"
     inkscape:window-x="0"
     inkscape:window-y="27"
     inkscape:window-maximized="1"
     inkscape:current-layer="svg7" />
  <g
     id="icomoon-ignore"
     transform="matrix(0.835141,0,0,0.92074795,94.958785,40.55771)" />
  <path
     d="m 494.64457,227.06598 c 0,-91.32851 -24.16052,-165.42095 -54.04218,-166.00279 0.11855,0 0.2371,-0.01194 0.35565,-0.01194 h -34.09039 c 0,0 -80.07045,66.51454 -195.32284,92.60838 -3.52479,20.58129 -5.76059,45.11878 -5.76059,73.40897 0,28.29008 2.24895,52.81312 5.76059,73.40886 115.25239,26.09384 195.32284,92.60838 195.32284,92.60838 h 34.09039 c -0.11855,0 -0.2371,-0.0119 -0.35565,-0.0119 29.88166,-0.5816 54.04218,-74.67452 54.04218,-166.00291 z m -65.41883,140.91247 c -3.85362,0 -8.02279,-4.42172 -10.16666,-7.0689 -5.19509,-6.3852 -10.19295,-16.34862 -14.46732,-28.78462 -9.56161,-27.82467 -14.82255,-65.13279 -14.82255,-105.05895 0,-39.92617 5.26094,-77.21972 14.82255,-105.05896 4.27437,-12.436 9.27223,-22.399418 14.46732,-28.784733 2.14387,-2.647182 6.31304,-7.068906 10.16666,-7.068906 3.85361,0 8.02279,4.421724 10.16665,7.068906 5.19509,6.385315 10.19285,16.348733 14.46732,28.784733 9.56161,27.82467 14.82244,65.14724 14.82244,105.05896 0,39.91159 -5.26083,77.21971 -14.82244,105.05895 -4.27447,12.436 -9.27223,22.39942 -14.46732,28.78462 -2.14386,2.63273 -6.31304,7.0689 -10.16665,7.0689 z M 177.26979,227.06598 c 0,-23.60669 1.56512,-46.55881 4.53745,-67.76541 -19.46518,2.98169 -36.54983,4.69796 -57.68531,4.69796 -27.566974,0 -27.566974,0 -27.566974,0 l -22.792744,43.03886 v 40.07162 l 22.792744,43.03887 c 0,0 0,0 27.566974,0 21.12234,0 38.20698,1.71626 57.68531,4.69807 -2.97233,-21.20671 -4.53745,-44.15883 -4.53745,-67.7654 z m 47.82118,96.78278 -52.60855,-11.14155 33.64323,146.1488 c 1.73605,7.56345 8.52255,11.37419 15.07237,8.4798 l 48.72876,-21.57037 c 6.54972,-2.89439 9.18019,-10.89422 5.83948,-17.75951 z m 204.13477,-42.4716 c -1.48622,0 -3.09078,-1.70169 -3.91936,-2.71991 -1.99912,-2.45813 -3.9325,-6.29801 -5.57651,-11.09784 -3.68257,-10.73431 -5.70799,-25.10476 -5.70799,-40.49343 0,-15.38868 2.02542,-29.75925 5.70799,-40.49344 1.64401,-4.79994 3.57739,-8.62525 5.57651,-11.09796 0.82879,-1.01869 2.43314,-2.71991 3.91936,-2.71991 1.48622,0 3.09078,1.70181 3.91935,2.71991 1.99913,2.45814 3.93251,6.29802 5.57651,11.09796 3.68257,10.71962 5.70799,25.10476 5.70799,40.49344 0,15.38867 -2.02542,29.75912 -5.70799,40.49343 -1.644,4.79983 -3.57738,8.62526 -5.57651,11.09784 -0.82879,1.0175 -2.43313,2.71991 -3.91935,2.71991 z"
     id="path4"
     inkscape:connector-curvature="0"
     style="stroke-width:13.83108711" />
  <path
     style="fill:#4d4d4d;stroke-width:1.87540162"
     d="m 397.63066,385.15564 c -44.48036,-34.09223 -121.59561,-70.602 -175.00731,-82.85599 -11.59823,-2.66104 -10.78464,-0.66042 -14.1468,-34.78813 -2.38646,-24.22352 -1.26237,-81.29021 1.9849,-100.76812 l 2.02477,-12.14496 19.90092,-5.4366 c 52.87498,-14.44486 111.44135,-42.16181 157.82115,-74.690049 l 18.43625,-12.930063 h 16.84215 c 10.11115,0 19.14671,1.065274 22.60856,2.664498 17.2033,7.94931 32.54662,43.088544 40.72676,93.272274 4.6199,28.34274 5.64624,96.89611 1.88542,125.93701 -5.35395,41.34339 -17.54032,79.81232 -30.42366,96.03972 -8.7589,11.03239 -15.11786,13.43272 -35.28078,13.31808 -17.38178,-0.0955 -17.66566,-0.17795 -27.37233,-7.61767 z m 39.78126,-21.79608 c 35.7178,-34.68208 42.89326,-186.66337 12.00745,-254.32763 -5.97808,-13.096777 -14.84324,-23.823681 -19.68892,-23.823681 -9.99497,0 -23.84442,24.801661 -31.16333,55.807581 -6.95624,29.47024 -8.80718,47.58384 -8.80718,86.19167 0,38.71984 1.84803,56.71306 8.88597,86.51853 6.85558,29.03361 21.2841,55.48059 30.26803,55.48059 1.36185,0 5.18593,-2.63117 8.49798,-5.84706 z"
     id="path14"
     inkscape:connector-curvature="0" />
  <path
     style="fill:#4d4d4d;stroke-width:1.87540162"
     d="m 167.98646,292.25466 c -5.17062,-0.83359 -23.39617,-2.16076 -40.50119,-2.94885 L 96.38521,287.87295 85.615335,267.45527 74.845461,247.0376 v -20.06322 -20.0631 l 11.145902,-21.13471 11.145795,-21.13482 37.450292,-1.1023 c 20.59758,-0.60668 39.30639,-1.73477 41.57506,-2.50721 l 4.12478,-1.40456 -1.4498,17.51934 c -1.85729,22.44325 -1.86785,77.55864 -0.0215,99.85917 0.78676,9.49121 0.78676,17.14614 0,17.01071 -0.78676,-0.13495 -5.66111,-0.92793 -10.83174,-1.76188 z"
     id="path16"
     inkscape:connector-curvature="0" />
  <path
     style="fill:#4d4d4d;stroke-width:1.87540162"
     d="m 210.72981,464.26024 c -2.07618,-2.29607 -7.73546,-23.09566 -15.96432,-58.67331 -18.23169,-78.82563 -20.60695,-89.67458 -19.82289,-90.54161 0.38476,-0.42516 11.6795,1.5382 25.1,4.36344 l 24.40075,5.13661 26.24339,54.07735 c 22.8933,47.17396 26.03505,54.73227 24.61167,59.20834 -1.38093,4.34278 -5.8771,7.02639 -29.26271,17.46667 -15.19707,6.78444 -28.63428,12.37689 -29.86033,12.42752 -1.22594,0.0478 -3.67654,-1.5087 -5.44556,-3.46501 z"
     id="path18"
     inkscape:connector-curvature="0" />
  <path
     style="fill:#4d4d4d;stroke-width:1.87540162"
     d="m 425.59587,276.90791 c -9.0292,-11.03383 -13.23416,-54.79832 -7.62263,-79.3345 3.08162,-13.47405 7.8759,-22.62955 11.85011,-22.62955 7.4116,0 15.15859,34.91997 13.39172,60.36378 -1.12851,16.25307 -5.0664,33.25924 -9.39142,40.55912 -3.27142,5.52175 -4.44013,5.6696 -8.22778,1.04139 z"
     id="path20"
     inkscape:connector-curvature="0" />
</svg>
