<?xml version="1.0" encoding="UTF-8" standalone="no"?>
<!-- Generated by IcoMoon.io -->

<svg
   xmlns:dc="http://purl.org/dc/elements/1.1/"
   xmlns:cc="http://creativecommons.org/ns#"
   xmlns:rdf="http://www.w3.org/1999/02/22-rdf-syntax-ns#"
   xmlns:svg="http://www.w3.org/2000/svg"
   xmlns="http://www.w3.org/2000/svg"
   xmlns:sodipodi="http://sodipodi.sourceforge.net/DTD/sodipodi-0.dtd"
   xmlns:inkscape="http://www.inkscape.org/namespaces/inkscape"
   version="1.1"
   width="32"
   height="32"
   viewBox="0 0 32 32"
   id="svg6"
   sodipodi:docname="bullhorn.svg"
   inkscape:version="0.92.2 (unknown)">
  <metadata
     id="metadata12">
    <rdf:RDF>
      <cc:Work
         rdf:about="">
        <dc:format>image/svg+xml</dc:format>
        <dc:type
           rdf:resource="http://purl.org/dc/dcmitype/StillImage" />
        <dc:title>bullhorn</dc:title>
      </cc:Work>
    </rdf:RDF>
  </metadata>
  <defs
     id="defs10" />
  <sodipodi:namedview
     pagecolor="#ffffff"
     bordercolor="#666666"
     borderopacity="1"
     objecttolerance="10"
     gridtolerance="10"
     guidetolerance="10"
     inkscape:pageopacity="0"
     inkscape:pageshadow="2"
     inkscape:window-width="1920"
     inkscape:window-height="1001"
     id="namedview8"
     showgrid="false"
     inkscape:zoom="7.375"
     inkscape:cx="-32.949153"
     inkscape:cy="16"
     inkscape:window-x="0"
     inkscape:window-y="27"
     inkscape:window-maximized="1"
     inkscape:current-layer="layer1" />
  <title
     id="title2">bullhorn</title>
  <path
     d="M 32,9.7996504 C 32,2.1523272 29.75825,-4.0517602 26.985655,-4.100477 c 0.01098,0 0.02197,-0.00122 0.03295,-0.00122 h -3.1631 c 0,0 -7.429382,5.5695507 -18.1231524,7.7545002 -0.327049,1.7233576 -0.5345055,3.7779896 -0.5345055,6.1468451 0,2.3688557 0.2086768,4.4222697 0.5345055,6.1468447 10.6937704,2.18495 18.1231524,7.754501 18.1231524,7.754501 h 3.1631 c -0.01098,0 -0.02197,-0.0012 -0.03295,-0.0012 C 29.75825,23.651061 32,17.446974 32,9.7996504 Z M 25.930068,21.598865 c -0.357557,0 -0.744402,-0.370248 -0.943317,-0.59191 -0.482031,-0.534667 -0.945757,-1.368942 -1.342365,-2.410264 -0.887181,-2.329882 -1.375314,-5.453849 -1.375314,-8.7970406 0,-3.343192 0.488133,-6.4659403 1.375314,-8.7970402 0.396608,-1.04132212 0.860334,-1.8755977 1.342365,-2.4102648 0.198915,-0.2216616 0.58576,-0.5919094 0.943317,-0.5919094 0.357557,0 0.744403,0.3702478 0.943317,0.5919094 0.482031,0.5346671 0.945757,1.36894268 1.342365,2.4102648 0.887182,2.329882 1.375314,5.4550662 1.375314,8.7970402 0,3.3419736 -0.488132,6.4659406 -1.375314,8.7970406 -0.396608,1.041322 -0.860334,1.875597 -1.342365,2.410264 -0.198914,0.220444 -0.58576,0.59191 -0.943317,0.59191 z M 2.5521662,9.7996504 c 0,-1.9766851 0.1452195,-3.8985637 0.4210145,-5.6742919 -1.8060915,0.2496737 -3.39130287,0.3933883 -5.3523766,0.3933883 -2.557816,0 -2.557816,0 -2.557816,0 l -2.1148356,3.603827 v 3.3553712 l 2.1148356,3.603827 c 0,0 0,0 2.557816,0 1.95985339,0 3.5450648,0.143715 5.3523766,0.393388 C 2.6973857,13.699432 2.5521662,11.777553 2.5521662,9.8008683 Z M 6.9892937,17.903694 2.1079653,16.970767 5.2295748,29.208432 c 0.1610838,0.633319 0.7907752,0.952414 1.3985006,0.710048 l 4.5213306,-1.806176 c 0.607725,-0.242366 0.851792,-0.912223 0.541827,-1.487081 z M 25.930068,14.347366 c -0.137897,0 -0.286778,-0.142497 -0.363659,-0.227751 -0.18549,-0.205829 -0.364879,-0.52736 -0.517421,-0.929274 -0.341693,-0.898825 -0.529624,-2.102131 -0.529624,-3.3906906 0,-1.28856 0.187931,-2.4918655 0.529624,-3.3906909 0.152542,-0.4019137 0.331931,-0.7222268 0.517421,-0.9292733 0.07688,-0.085254 0.225762,-0.2277512 0.363659,-0.2277512 0.137898,0 0.286778,0.1424967 0.363659,0.2277512 0.185491,0.2058285 0.364879,0.5273596 0.517421,0.9292733 0.341693,0.8976075 0.529624,2.1021309 0.529624,3.3906909 0,1.2885596 -0.187931,2.4918656 -0.529624,3.3906906 -0.152542,0.401914 -0.33193,0.722227 -0.517421,0.929274 -0.07688,0.08525 -0.225761,0.227751 -0.363659,0.227751 z"
     id="path4"
     inkscape:connector-curvature="0"
     style="stroke-width:1.21912575" />
  <path
     style="fill:#4d4d4d;stroke-width:0.16530518"
     d="M 22.9985,23.037184 C 18.871356,20.182491 11.716166,17.125377 6.7603252,16.099288 5.6841826,15.876476 5.7596736,16.044007 5.4477055,13.186336 5.226275,11.157995 5.330578,6.379548 5.6318768,4.7485812 L 5.8197469,3.7316366 7.6662717,3.276399 C 12.572306,2.066877 18.006426,-0.25398266 22.309814,-2.9777161 l 1.710613,-1.0826934 h 1.562709 c 0.938176,0 1.776543,0.089168 2.097756,0.2231139 1.596215,0.6656236 3.019859,3.60798971 3.778854,7.8100838 0.428667,2.3732633 0.523898,8.1135388 0.174946,10.5452518 -0.496777,3.461858 -1.627493,6.683036 -2.822886,8.041824 -0.812701,0.923785 -1.402717,1.124782 -3.273547,1.115177 -1.61278,-0.0083 -1.63912,-0.0149 -2.539759,-0.637857 z m 3.69113,-1.825086 C 30.003732,18.308026 30.669509,5.5819707 27.803749,-0.08384817 27.249068,-1.1804941 26.426505,-2.0787083 25.976904,-2.0787083 c -0.927399,0 -2.212425,2.07674884 -2.891511,4.6730107 -0.645448,2.46767 -0.817185,3.9843975 -0.817185,7.2171971 0,3.2421785 0.171469,4.7488365 0.824487,7.2445695 0.636108,2.43111 1.974866,4.645638 2.808446,4.645638 0.126362,0 0.481181,-0.220324 0.788489,-0.489609 z"
     id="path14"
     inkscape:connector-curvature="0" />
  <path
     style="fill:#4d4d4d;stroke-width:0.16530518"
     d="M 1.6908122,15.258178 C 1.2110496,15.188362 -0.48002157,15.07725 -2.0671239,15.01126 L -4.9527643,14.891281 -5.9520552,13.181622 -6.9513459,11.471963 V 9.791986 8.1120083 l 1.0341798,-1.7697007 1.0341797,-1.7697014 3.4748439,-0.092332 C 0.50302171,4.4294919 2.2389272,4.3350173 2.449425,4.270331 L 2.8321485,4.1527192 2.6976283,5.6196897 c -0.172328,1.8792686 -0.1733144,6.4943243 -0.00178,8.3616393 0.073004,0.794745 0.073004,1.435719 0,1.424388 -0.073003,-0.01133 -0.5252663,-0.07773 -1.005029,-0.147539 z"
     id="path16"
     inkscape:connector-curvature="0" />
  <path
     style="fill:#4d4d4d;stroke-width:0.16530518"
     d="M 5.6567801,29.660948 C 5.4641385,29.468688 4.9390363,27.727055 4.1755199,24.747981 2.4838794,18.147569 2.2634917,17.239143 2.3362342,17.166544 c 0.035681,-0.03561 1.0836961,0.128802 2.3289205,0.365364 l 2.2640449,0.430111 2.4350104,4.528129 c 2.124169,3.950089 2.415684,4.582976 2.283612,4.957778 -0.128137,0.363634 -0.54531,0.588349 -2.7151653,1.462553 -1.4100718,0.568097 -2.6568436,1.036371 -2.770603,1.04061 -0.1137593,0.0043 -0.3411328,-0.126324 -0.5052736,-0.290141 z"
     id="path18"
     inkscape:connector-curvature="0" />
  <path
     style="fill:#4d4d4d;stroke-width:0.16530518"
     d="M 25.593267,13.97313 C 24.755489,13.049223 24.365327,9.3846281 24.886,7.3301131 c 0.28593,-1.1282427 0.730774,-1.8948707 1.09952,-1.8948707 0.687688,0 1.406501,2.924005 1.242563,5.0545246 -0.104717,1.360935 -0.470089,2.784937 -0.87139,3.39619 -0.303547,0.462355 -0.411989,0.474738 -0.763426,0.08718 z"
     id="path20"
     inkscape:connector-curvature="0" />
  <g
     inkscape:groupmode="layer"
     id="layer1"
     inkscape:label="Layer 1" />
</svg>
