<?xml version="1.0"?>
<svg xmlns="http://www.w3.org/2000/svg" viewBox="0 0 64 64">
    <path d="M 19 2 C 16.243 2 14 4.243 14 7 L 14 57 C 14 59.757 16.243 62 19 62 L 45 62 C 47.757 62 50 59.757 50 57 L 50 7 C 50 4.243 47.757 2 45 2 L 19 2 z M 19 4 L 45 4 C 46.654 4 48 5.346 48 7 L 48 8 L 37 8 C 36.447 8 36 8.448 36 9 C 36 9.552 36.447 10 37 10 L 48 10 L 48 50 L 16 50 L 16 10 L 27 10 C 27.553 10 28 9.552 28 9 C 28 8.448 27.553 8 27 8 L 16 8 L 16 7 C 16 5.346 17.346 4 19 4 z M 31 8 C 30.447 8 30 8.448 30 9 C 30 9.552 30.447 10 31 10 L 33 10 C 33.553 10 34 9.552 34 9 C 34 8.448 33.553 8 33 8 L 31 8 z M 19 42 C 18.447 42 18 42.448 18 43 L 18 45 C 18 45.552 18.447 46 19 46 C 19.553 46 20 45.552 20 45 L 20 43 C 20 42.448 19.553 42 19 42 z M 24 42 C 23.447 42 23 42.448 23 43 L 23 45 C 23 45.552 23.447 46 24 46 C 24.553 46 25 45.552 25 45 L 25 43 C 25 42.448 24.553 42 24 42 z M 29 42 C 28.447 42 28 42.448 28 43 L 28 45 C 28 45.552 28.447 46 29 46 C 29.553 46 30 45.552 30 45 L 30 43 C 30 42.448 29.553 42 29 42 z M 35 42 C 34.447 42 34 42.448 34 43 L 34 45 C 34 45.552 34.447 46 35 46 C 35.553 46 36 45.552 36 45 L 36 43 C 36 42.448 35.553 42 35 42 z M 40 42 C 39.447 42 39 42.448 39 43 L 39 45 C 39 45.552 39.447 46 40 46 C 40.553 46 41 45.552 41 45 L 41 43 C 41 42.448 40.553 42 40 42 z M 45 42 C 44.447 42 44 42.448 44 43 L 44 45 C 44 45.552 44.447 46 45 46 C 45.553 46 46 45.552 46 45 L 46 43 C 46 42.448 45.553 42 45 42 z M 16 52 L 48 52 L 48 57 C 48 58.654 46.654 60 45 60 L 19 60 C 17.346 60 16 58.654 16 57 L 16 52 z M 29 54 C 28.447 54 28 54.448 28 55 C 28 55.552 28.447 56 29 56 L 35 56 C 35.553 56 36 55.552 36 55 C 36 54.448 35.553 54 35 54 L 29 54 z"/>
</svg>
