<?xml version="1.0" encoding="UTF-8" standalone="no"?>
<!-- Generated by IcoMoon.io -->

<svg
   xmlns:dc="http://purl.org/dc/elements/1.1/"
   xmlns:cc="http://creativecommons.org/ns#"
   xmlns:rdf="http://www.w3.org/1999/02/22-rdf-syntax-ns#"
   xmlns:svg="http://www.w3.org/2000/svg"
   xmlns="http://www.w3.org/2000/svg"
   xmlns:sodipodi="http://sodipodi.sourceforge.net/DTD/sodipodi-0.dtd"
   xmlns:inkscape="http://www.inkscape.org/namespaces/inkscape"
   version="1.1"
   width="512"
   height="512"
   viewBox="0 0 512 512"
   id="svg7"
   sodipodi:docname="compass.svg"
   inkscape:version="0.92.2 (unknown)">
  <metadata
     id="metadata13">
    <rdf:RDF>
      <cc:Work
         rdf:about="">
        <dc:format>image/svg+xml</dc:format>
        <dc:type
           rdf:resource="http://purl.org/dc/dcmitype/StillImage" />
        <dc:title></dc:title>
      </cc:Work>
    </rdf:RDF>
  </metadata>
  <defs
     id="defs11" />
  <sodipodi:namedview
     pagecolor="#ffffff"
     bordercolor="#666666"
     borderopacity="1"
     objecttolerance="10"
     gridtolerance="10"
     guidetolerance="10"
     inkscape:pageopacity="0"
     inkscape:pageshadow="2"
     inkscape:window-width="1920"
     inkscape:window-height="1001"
     id="namedview9"
     showgrid="false"
     inkscape:zoom="0.4609375"
     inkscape:cx="-135.59322"
     inkscape:cy="256"
     inkscape:window-x="0"
     inkscape:window-y="27"
     inkscape:window-maximized="1"
     inkscape:current-layer="svg7" />
  <g
     id="icomoon-ignore" />
  <path
     d="M256 0c-141.385 0-256 114.615-256 256s114.615 256 256 256 256-114.615 256-256-114.615-256-256-256zM48 256c0-114.875 93.125-208 208-208 54.787 0 104.616 21.193 141.767 55.814l-205.767 88.186-88.186 205.767c-34.621-37.151-55.814-86.98-55.814-141.767zM292.583 292.583l-128.041 54.875 54.875-128.041 73.166 73.166zM256 464c-54.787 0-104.617-21.193-141.766-55.814l205.766-88.186 88.186-205.766c34.621 37.149 55.814 86.979 55.814 141.766 0 114.875-93.125 208-208 208z"
     id="path5" />
  <path
     style="fill:#333333;stroke-width:2.16949153"
     d="M 233.43729,509.47467 C 131.52007,501.62091 40.045804,426.60217 11.396184,327.37712 -13.558291,240.9498 8.4105626,148.75581 69.640678,82.949565 119.27566,29.605031 183.26072,1.812444 256.18271,1.9230599 326.1373,2.029174 386.18722,26.792279 435.37601,75.817936 c 22.04572,21.972621 34.94851,39.699984 48.24433,66.283754 47.64429,95.26038 31.40352,208.95836 -41.02179,287.18438 -53.20266,57.46378 -128.65844,86.39215 -209.16126,80.1886 z m 76.74333,-51.56591 c 83.44921,-22.88946 143.18293,-92.94854 153.27664,-179.77149 6.13951,-52.81017 -10.17615,-108.96654 -44.34402,-152.62618 -10.45447,-13.35872 -10.70906,-13.52303 -13.01695,-8.4008 -1.29464,2.87343 -21.39121,49.53723 -44.659,103.69732 l -42.30509,98.47292 -101.9661,43.57075 c -56.08135,23.9639 -102.45424,43.99414 -103.05085,44.51165 -1.89634,1.64491 17.90941,17.77748 32.87416,26.7773 20.17834,12.13528 42.97386,21.31562 64.67634,26.04678 25.60499,5.58193 73.93327,4.46427 98.51487,-2.27825 z M 149.43754,294.2257 193.30169,192.51922 295.74821,148.86978 C 352.09379,124.86259 397.91883,104.24407 397.5816,103.05085 396.52693,99.31881 367.52035,78.427008 352.75932,70.767868 288.65508,37.505746 211.96025,39.935349 147.74237,77.262566 124.51758,90.762184 90.989514,124.54607 76.410129,149.13907 37.943743,214.0255 37.771691,298.6235 75.978238,361.50079 c 12.059047,19.84579 27.700282,39.58918 28.860882,36.43006 0.40384,-1.09926 20.47313,-47.76657 44.59842,-103.70515 z m 80.00964,26.62869 c 33.81489,-14.44532 62.19481,-26.92257 63.06645,-27.72719 0.87166,-0.80462 -14.97372,-17.99999 -35.21194,-38.21195 -22.37099,-22.34194 -37.53057,-35.92441 -38.66856,-34.64569 -1.37643,1.54667 -44.45122,100.5952 -53.98552,124.13722 -0.60405,1.49153 -0.10463,2.71186 1.10983,2.71186 1.21445,0 29.87483,-11.81891 63.68974,-26.26425 z"
     id="path15"
     inkscape:connector-curvature="0" />
  <path
     style="fill:#333333;stroke-width:2.16949153"
     d="m 235.15416,509.2414 c -2.48433,-0.9206 -7.54797,-1.56578 -11.2525,-1.43373 -8.4679,0.30189 -37.26209,-6.87826 -56.25971,-14.02895 -7.96172,-2.99676 -14.4908,-4.76023 -14.50907,-3.91879 -0.0182,0.84146 -0.75047,0.44071 -1.62712,-0.89054 -1.78633,-2.71264 -20.03457,-12.4045 -20.03457,-10.64059 0,0.62084 -1.98816,-0.85932 -4.41812,-3.28928 -2.42996,-2.42998 -5.35877,-3.83676 -6.50847,-3.12621 -1.1497,0.71055 -2.09036,0.42353 -2.09036,-0.63783 0,-1.06138 -4.63729,-5.21978 -10.30509,-9.24091 -9.190378,-6.52028 -53.488193,-47.66169 -51.318348,-47.66169 0.477785,0 -3.278433,-5.65549 -8.347153,-12.56775 -5.068717,-6.91226 -11.146335,-16.18684 -13.505814,-20.61017 -2.359478,-4.42334 -5.101841,-8.04242 -6.094138,-8.04242 -0.992297,0 -1.200809,-0.97627 -0.463358,-2.16949 0.737451,-1.19322 0.469643,-2.16949 -0.595126,-2.16949 -1.064772,0 -1.978438,-1.22034 -2.030369,-2.71187 -0.05194,-1.49152 -2.331509,-7.59322 -5.065728,-13.55932 -2.734217,-5.9661 -5.173083,-11.57966 -5.419702,-12.47457 -0.246618,-0.89492 -0.692465,-2.11526 -0.99077,-2.71187 -0.761209,-1.52242 -1.114837,-3.10419 -3.028831,-13.54795 -0.928234,-5.06494 -2.5363835,-9.73349 -3.573666,-10.37455 -1.0372827,-0.64109 -1.3539604,-2.552 -0.7037282,-4.24648 0.650232,-1.69448 0.4507334,-4.26446 -0.4433306,-5.7111 C 3.86377,299.09855 3.1725941,288.92882 3.342436,256 c 0.1692145,-32.80718 0.7974903,-42.13199 3.2305493,-47.94749 0.7991391,-1.91011 1.2494349,-4.35078 1.0006569,-5.42373 -0.2487778,-1.07295 0.1048214,-3.41522 0.7857764,-5.20505 3.8773284,-10.19122 5.7625214,-18.08854 4.7204614,-19.77463 -0.652741,-1.05616 -0.04846,-1.92029 1.342838,-1.92029 1.391302,0 1.967695,-1.4644 1.280872,-3.25423 -0.686822,-1.78983 -0.495994,-3.25424 0.424064,-3.25424 1.817874,0 10.297892,-21.74827 9.516619,-24.40678 -0.262995,-0.89492 0.555717,-1.62712 1.819357,-1.62712 1.26364,0 1.745694,-0.89289 1.071228,-1.98419 -0.674465,-1.09131 -0.473921,-2.31165 0.44565,-2.71187 C 29.900082,138.09016 37.121768,128 45.028703,116.0678 54.882697,101.19732 66.923418,87.087542 83.306197,71.212763 96.451886,58.4747 107.63242,48.477614 108.15182,48.997018 c 0.51941,0.519405 3.32501,-1.261932 6.23469,-3.958526 2.90967,-2.696595 5.95985,-4.902899 6.77818,-4.902899 0.81832,0 3.22799,-1.489941 5.35481,-3.310982 2.12682,-1.821041 4.66332,-3.410343 5.63668,-3.531785 2.92064,-0.364394 17.65491,-8.206067 19.08299,-10.156088 0.73001,-0.99683 1.96055,-1.696875 2.73451,-1.55566 1.25446,0.228885 40.87366,-11.517245 49.09073,-14.5542058 1.78983,-0.6615064 4.57509,-0.9828834 6.18946,-0.7141708 1.61438,0.2687123 4.5432,-0.1959745 6.50848,-1.0326365 1.96528,-0.8366625 7.20957,-1.3178047 11.65399,-1.0692051 4.4444,0.2485997 9.14643,-0.2066354 10.44895,-1.0116337 2.72466,-1.6839404 31.9228,-1.9294075 36.79234,-0.3093113 1.78983,0.5954773 9.6,1.7702595 17.35593,2.6106275 20.65621,2.2381329 22.46027,2.502342 26.0339,3.812701 13.06311,4.7899147 40.43424,13.2001187 41.76271,12.8322447 0.89491,-0.247814 1.62712,0.583316 1.62712,1.846956 0,1.26364 0.97627,1.69416 2.16949,0.956709 1.19322,-0.737452 2.16949,-0.372721 2.16949,0.810511 0,1.982058 5.31556,4.588242 9.26301,4.541594 0.91837,-0.01085 2.87091,0.976974 4.33899,2.195167 5.50792,4.570477 36.29631,25.858389 36.29631,25.09624 0,-1.065919 36.17451,36.982495 44.83182,47.154195 3.77613,4.43668 6.21681,8.09775 5.42373,8.1357 -0.7931,0.0379 0.3315,1.41345 2.49908,3.05667 2.16758,1.64322 3.86736,3.56908 3.77728,4.2797 -0.09,0.71062 3.77639,9.12867 8.59216,18.70678 4.8158,9.57811 10.52768,22.02119 12.69311,27.6513 2.16542,5.6301 4.70806,12.18909 5.65031,14.57553 0.94224,2.38644 2.08165,7.17825 2.532,10.64845 0.45036,3.47021 1.77792,7.46512 2.95016,8.87758 1.17224,1.41246 1.53107,3.16839 0.79742,3.90205 -0.73368,0.73367 -0.60807,3.08452 0.27914,5.22412 3.67866,8.8715 4.49766,67.94517 1.17923,85.05489 -1.25245,6.45753 -1.7928,12.22532 -1.20081,12.81733 0.59201,0.59199 0.11715,2.232 -1.05498,3.64447 -1.17224,1.41247 -2.4998,5.40737 -2.95016,8.87758 -0.45035,3.47021 -1.56731,8.26201 -2.48214,10.64845 -9.97268,26.01515 -15.06747,37.9449 -18.74872,43.90131 -2.40721,3.89495 -3.77097,7.08174 -3.03055,7.08174 0.74041,0 -0.61062,2.10039 -3.00227,4.66753 -2.39167,2.56716 -3.8997,5.39366 -3.35121,6.28115 0.54849,0.88748 -0.60128,2.22703 -2.55503,2.97674 -1.95376,0.74974 -3.03087,1.8846 -2.39356,2.52188 0.63731,0.63731 -1.66363,4.24887 -5.11321,8.02567 -3.44958,3.7768 -6.27196,7.4409 -6.27196,8.14245 0,0.70155 -8.78644,10.06199 -19.52542,20.80097 -10.73898,10.73899 -19.52542,19.05183 -19.52542,18.47296 0,-0.57886 -2.19661,0.94716 -4.88136,3.39118 -2.68475,2.44402 -10.73898,8.22775 -17.8983,12.85276 -7.15933,4.62499 -13.3444,9.14736 -13.74462,10.04972 -0.40023,0.90235 -1.62057,1.0888 -2.71187,0.41433 -1.0913,-0.67446 -1.98419,-0.1348 -1.98419,1.19927 0,1.33406 -0.89756,1.87084 -1.99459,1.19285 -1.09702,-0.67801 -3.42148,0.19417 -5.16545,1.93814 -1.74399,1.74396 -3.77524,2.56651 -4.51389,1.82784 -0.73867,-0.73865 -1.34302,-0.0413 -1.34302,1.54964 0,1.59096 -0.52565,2.36701 -1.16812,1.72453 -0.64247,-0.64247 -9.18485,1.62243 -18.98305,5.03314 -9.79821,3.41067 -19.52341,6.21429 -21.61154,6.23025 -2.08814,0.0152 -3.79661,0.83875 -3.79661,1.82841 0,0.98966 -1.70848,1.73895 -3.79661,1.66511 -5.48159,-0.19396 -33.58456,3.1532 -37.42373,4.45717 -5.40458,1.83565 -34.66687,1.95951 -39.50347,0.16727 z m 64.45262,-48.38287 c 4.77288,-0.75743 9.8983,-2.37151 11.38983,-3.58686 1.49153,-1.21535 2.71186,-1.65465 2.71186,-0.97621 0,2.09437 22.04844,-6.35533 36.60072,-14.02661 7.60155,-4.00718 15.65578,-8.24951 17.8983,-9.42737 2.2425,-1.17786 4.07726,-2.88633 4.07726,-3.79661 0,-0.91027 1.13844,-1.65504 2.52986,-1.65504 3.13704,0 5.18628,-1.77903 26.75827,-23.22985 16.84836,-16.7537 24.94915,-25.73234 24.94915,-27.65271 0,-0.51406 3.91639,-7.18089 8.70309,-14.8152 11.29121,-18.00838 21.13994,-45.15636 25.7502,-70.98021 3.5502,-19.88623 4.35586,-52.70905 1.62416,-66.16949 -0.72645,-3.57966 -1.78221,-8.8049 -2.34611,-11.61166 -5.96276,-29.67908 -27.34153,-73.06979 -45.34669,-92.03642 -6.65923,-7.01482 -6.71566,-6.99194 -13.45713,5.45586 -1.77035,3.26885 -3.17926,6.45196 -3.13091,7.07358 0.0484,0.62161 -1.41604,4.03856 -3.25423,7.59322 -1.83819,3.55465 -3.3026,6.9716 -3.25424,7.59322 0.0484,0.62162 -1.41605,4.03856 -3.25424,7.59322 -1.83819,3.55466 -3.30259,6.9716 -3.25424,7.59322 0.0484,0.62162 -1.41604,4.03857 -3.25423,7.59322 -1.83819,3.55466 -3.3026,6.97161 -3.25424,7.59322 0.0484,0.62162 -1.41605,4.03857 -3.25424,7.59322 -1.83819,3.55466 -3.30259,6.97161 -3.25423,7.59322 0.0484,0.62162 -1.41605,4.03857 -3.25424,7.59322 -1.83819,3.55466 -3.3026,6.97161 -3.25424,7.59322 0.0484,0.62162 -1.41605,4.03857 -3.25424,7.59322 -1.83818,3.55465 -3.30259,6.9716 -3.25423,7.59322 0.0484,0.62163 -1.41605,4.03858 -3.25424,7.59322 -1.83819,3.55465 -3.3026,6.9716 -3.25424,7.59322 0.0484,0.62163 -1.41605,4.03858 -3.25424,7.59322 -1.83818,3.55465 -3.30259,6.9716 -3.25423,7.59322 0.0484,0.62163 -1.35734,3.92503 -3.12377,7.34089 -1.7664,3.41589 -2.59974,6.8226 -1.85185,7.57051 0.74789,0.74789 0.32666,1.35979 -0.9361,1.35979 -2.15955,0 -6.06724,10.01309 -5.29162,13.55932 0.19568,0.89492 -0.51456,1.62712 -1.57842,1.62712 -1.88689,0 -5.63877,10.31897 -4.93006,13.55932 0.19569,0.89492 -0.51456,1.62712 -1.57841,1.62712 -1.80914,0 -4.50838,7.36946 -4.28451,11.6976 0.0996,1.92479 -12.02109,10.47947 -14.3178,10.10544 -0.66208,-0.10782 -4.11214,1.30793 -7.66678,3.14611 -3.55465,1.83819 -6.9716,3.3026 -7.59322,3.25424 -0.62163,-0.0484 -4.03858,1.41605 -7.59323,3.25424 -3.55464,1.83819 -6.97159,3.30259 -7.59322,3.25424 -0.62162,-0.0484 -4.03857,1.41605 -7.59322,3.25423 -3.55464,1.83819 -6.97159,3.3026 -7.59322,3.25424 -0.62162,-0.0484 -4.03857,1.41605 -7.59322,3.25424 -3.55464,1.83819 -6.97159,3.30259 -7.59322,3.25424 -0.62162,-0.0484 -4.03857,1.41604 -7.59322,3.25423 -3.55464,1.83819 -6.97159,3.3026 -7.59322,3.25424 -0.62162,-0.0484 -4.03857,1.41605 -7.59322,3.25424 -3.55464,1.83819 -6.97159,3.30259 -7.59322,3.25423 -0.62162,-0.0484 -4.03856,1.41605 -7.59322,3.25424 -3.55465,1.83819 -6.9716,3.3026 -7.59322,3.25424 -0.62161,-0.0484 -4.03856,1.41605 -7.59322,3.25424 -3.55465,1.83819 -6.9716,3.30259 -7.59322,3.25423 -0.62162,-0.0484 -4.03856,1.41605 -7.59322,3.25424 -3.55466,1.83819 -6.9716,3.3026 -7.59322,3.25424 -0.62162,-0.0484 -4.03857,1.41605 -7.59322,3.25424 -3.55466,1.83818 -6.97161,3.30259 -7.59322,3.25423 -0.62162,-0.0484 -4.03857,1.41605 -7.59322,3.25424 -3.55466,1.83819 -6.97161,3.3026 -7.59322,3.25424 -0.62162,-0.0484 -4.29286,1.59941 -8.15833,3.66171 -3.86546,2.0623 -7.51625,3.83855 -8.11286,3.94722 -4.58682,0.83547 -10.84746,3.82928 -10.84746,5.18723 0,1.53684 3.69766,4.90081 20.61017,18.7502 3.57966,2.93133 7.64746,5.33089 9.03955,5.33235 1.39209,10e-4 2.8565,0.73485 3.25424,1.62976 1.12986,2.54219 31.84415,17.35619 46.28248,22.32281 7.15933,2.46272 18.87458,5.02389 26.0339,5.69151 7.15933,0.6676 13.50509,1.70661 14.1017,2.30893 1.32725,1.3399 54.13764,-0.91128 66.16949,-2.82065 z M 110.67673,385.30187 c 0.23158,-1.31263 2.09603,-5.54926 4.14324,-9.41473 2.0472,-3.86547 3.68262,-7.5367 3.63427,-8.15833 -0.0484,-0.62162 1.41605,-4.03857 3.25423,-7.59322 1.83819,-3.55464 3.3026,-6.97159 3.25424,-7.59322 -0.0484,-0.62162 1.41606,-4.03857 3.25424,-7.59322 1.83818,-3.55464 3.30259,-6.97159 3.25424,-7.59322 -0.0484,-0.62162 1.41605,-4.03857 3.25423,-7.59322 1.83819,-3.55464 3.30259,-6.97159 3.25424,-7.59322 -0.0484,-0.62162 1.41605,-4.03857 3.25424,-7.59322 1.83818,-3.55465 3.30259,-6.97159 3.25424,-7.59322 -0.0484,-0.62162 1.35733,-3.92502 3.12375,-7.34089 1.76642,-3.41588 2.59976,-6.82259 1.85187,-7.5705 -0.74789,-0.74789 -0.32666,-1.3598 0.93608,-1.3598 2.15957,0 6.06725,-10.01309 5.29163,-13.55932 -0.19573,-0.89491 0.51456,-1.62712 1.57842,-1.62712 1.88689,0 5.63878,-10.31897 4.93006,-13.55932 -0.19573,-0.89491 0.51455,-1.62712 1.57842,-1.62712 1.88689,0 5.63877,-10.31897 4.93005,-13.55932 -0.19573,-0.89491 0.51456,-1.62712 1.57842,-1.62712 1.88689,0 5.63878,-10.31897 4.93006,-13.55932 -0.19574,-0.89491 0.51455,-1.62712 1.57842,-1.62712 1.88689,0 5.63877,-10.31897 4.93005,-13.55932 -0.19573,-0.89492 0.51456,-1.62712 1.57842,-1.62712 1.88689,0 5.63878,-10.31896 4.93006,-13.55932 -0.19574,-0.89492 0.62039,-1.62712 1.81361,-1.62712 1.19322,0 2.16949,-1.95254 2.16949,-4.33898 0,-2.38644 0.7322,-4.11036 1.62712,-3.83092 2.51326,0.78476 27.45802,-9.70774 29.25492,-12.30548 0.87665,-1.26735 1.60885,-1.59999 1.62712,-0.73918 0.0434,2.04763 26.67108,-9.35711 28.74576,-12.31195 0.87665,-1.24856 1.60885,-1.5658 1.62712,-0.705 0.0321,1.51316 26.04145,-8.82846 28.2366,-11.2272 0.59661,-0.65195 2.54916,-1.50661 4.33899,-1.89925 4.44919,-0.97604 39.87152,-16.10473 41.22034,-17.60499 0.59661,-0.6636 2.54915,-1.51225 4.33898,-1.88588 1.78983,-0.37365 8.62373,-3.21812 15.18644,-6.32107 6.56271,-3.10295 12.42034,-5.75201 13.01695,-5.8868 0.59661,-0.13479 6.65053,-2.90987 13.45317,-6.16685 6.80263,-3.25697 15.02917,-6.93338 18.2812,-8.1698 l 5.91277,-2.24804 -7.09465,-6.479962 C 375.86642,82.745452 341.73935,63.547171 319.44322,56.660597 297.22598,49.798391 288.6246,48.798327 254.04746,49.05718 c -25.40627,0.1902 -36.12781,1.215176 -48.89277,4.674141 -17.17199,4.65315 -56.89695,21.525066 -58.13548,24.691198 -0.39774,1.016767 -1.92213,1.848667 -3.38753,1.848667 -1.4654,0 -4.55692,1.708475 -6.87006,3.796611 -2.31313,2.088135 -9.38629,8.082868 -15.71814,13.32163 -10.12517,8.377233 -22.14131,21.513853 -39.090768,42.735893 -7.447743,9.32516 -17.436633,29.7943 -23.290063,47.7258 -5.131188,15.71896 -6.220114,20.14189 -9.033389,36.69125 -1.963906,11.55287 -2.008745,52.02337 -0.06971,62.91526 3.100492,17.41596 4.008032,21.7787 5.415602,26.0339 0.789406,2.38644 1.605309,5.07118 1.813116,5.9661 0.207815,0.89491 0.574561,1.87118 0.815008,2.16949 0.240447,0.2983 0.757242,2.2032 1.148431,4.23313 2.405485,12.48224 24.933821,50.45383 40.016007,67.44711 l 5.372386,6.05312 3.05779,-5.836 c 1.68178,-3.20978 3.24726,-6.90996 3.47884,-8.22261 z m 69.60802,-43.54339 c 16.01476,-6.6634 19.56104,-8.04259 20.09052,-7.81344 0.31081,0.1345 3.47346,-1.25939 7.02812,-3.09758 3.55466,-1.83819 6.9716,-3.3026 7.59322,-3.25424 0.62162,0.0484 4.03857,-1.41605 7.59322,-3.25424 3.55465,-1.83819 6.9716,-3.30259 7.59322,-3.25423 0.62163,0.0484 4.03857,-1.41605 7.59322,-3.25424 3.55465,-1.83819 6.9716,-3.3026 7.59322,-3.25424 0.62163,0.0484 4.29286,-1.58707 8.15833,-3.63427 3.86547,-2.04719 8.29939,-3.94062 9.85316,-4.20759 1.55377,-0.26696 5.18044,-2.02872 8.05927,-3.91498 2.87881,-1.88629 6.6248,-3.4296 8.32443,-3.4296 1.69962,0 5.39498,-1.91182 8.21193,-4.24849 l 5.1217,-4.2485 -36.57097,-36.35473 -36.57097,-36.35473 -6.50066,12.94221 c -3.57537,7.11821 -6.69713,13.91848 -6.93725,15.1117 -0.24012,1.19322 -2.11156,5.33213 -4.15876,9.1976 -2.04721,3.86547 -3.68263,7.53671 -3.63428,8.15833 0.0484,0.62162 -1.35733,3.92502 -3.12375,7.34089 -1.76642,3.41588 -2.59976,6.82259 -1.85187,7.5705 0.74789,0.74789 0.32666,1.3598 -0.93608,1.3598 -2.15957,0 -6.06725,10.01309 -5.29163,13.55932 0.19573,0.89491 -0.51456,1.62712 -1.57843,1.62712 -1.88688,0 -5.63877,10.31897 -4.93005,13.55932 0.19573,0.89491 -0.51455,1.62712 -1.57842,1.62712 -1.88689,0 -5.63877,10.31897 -4.93005,13.55932 0.19573,0.89492 -0.51456,1.62712 -1.57842,1.62712 -1.60482,0 -4.79928,7.79585 -5.48204,13.37854 -0.0973,0.79546 -0.90909,2.17851 -1.804,3.07343 -0.89492,0.89491 -1.62712,2.50648 -1.62712,3.58122 0,2.05349 5.39349,0.82753 16.27119,-3.69844 z"
     id="path17"
     inkscape:connector-curvature="0" />
  <path
     style="fill:#4d4d4d;stroke-width:2.16949153"
     d="m 240.10448,510.35438 c -0.30652,-0.30851 -5.36613,-0.96515 -11.24354,-1.45923 -5.87741,-0.49408 -13.10974,-1.50454 -16.07187,-2.24548 -2.96212,-0.74093 -7.82636,-1.66368 -10.80941,-2.05052 -2.98305,-0.38687 -6.88813,-1.22776 -8.67797,-1.86869 -1.78983,-0.64091 -11.55254,-3.93173 -21.69491,-7.3129 -10.14237,-3.38118 -24.97347,-9.71412 -32.95799,-14.07317 -7.98452,-4.35907 -15.06249,-7.38041 -15.72881,-6.71408 -0.66633,0.66632 -1.21151,0.0725 -1.21151,-1.31957 0,-1.3921 -1.35995,-2.53108 -3.02212,-2.53108 -1.66217,0 -3.63769,-1.60414 -4.39005,-3.56476 -0.75236,-1.96061 -1.84864,-3.08404 -2.43618,-2.49649 -1.40814,1.40815 -17.682267,-12.76436 -37.880459,-32.9886 -17.869457,-17.89249 -28.112404,-29.74171 -26.823845,-31.03026 0.458166,-0.45817 -1.592263,-3.44997 -4.556513,-6.64845 -2.964248,-3.19848 -5.324347,-6.03624 -5.244662,-6.30615 0.453854,-1.53721 -5.548385,-12.42292 -6.849844,-12.42292 -0.856927,0 -2.741788,-3.17288 -4.188578,-7.05084 -1.446791,-3.87797 -3.692178,-9.49153 -4.989748,-12.47458 -1.297571,-2.98305 -2.468947,-5.91186 -2.603056,-6.50847 -0.134118,-0.59661 -2.071777,-6.45424 -4.305925,-13.01695 -2.234148,-6.56272 -3.965532,-12.15822 -3.847518,-12.43444 0.118013,-0.27625 -0.7522275,-3.69319 -1.9338671,-7.59322 -7.93366433,-26.18531 -8.83161969,-81.80214 -1.795797,-111.22658 1.4265834,-5.9661 2.8250582,-12.31187 3.1077219,-14.1017 0.2826632,-1.78983 1.0634652,-4.71864 1.7351152,-6.50847 3.350086,-8.9274 6.729631,-20.7914 6.33445,-22.23729 -0.244593,-0.89491 0.425721,-1.62712 1.489588,-1.62712 1.600225,0 3.098392,-3.48947 5.588679,-13.01695 1.577045,-6.03354 3.925513,-10.84745 5.29193,-10.84745 1.383528,0 7.444016,-10.80675 6.966849,-12.42293 -0.07968,-0.2699 2.280414,-3.10767 5.244662,-6.30614 2.96425,-3.19848 5.042264,-6.1627 4.61781,-6.58715 -1.401761,-1.40177 41.696328,-49.197982 44.973926,-49.876542 0.917333,-0.189917 5.572922,-3.850932 10.345761,-8.135593 4.77283,-4.284662 9.57457,-7.790293 10.67054,-7.790293 1.09596,0 1.99266,-0.976271 1.99266,-2.169491 0,-1.193221 1.38305,-2.169492 3.07345,-2.169492 1.69039,0 3.39887,-0.732203 3.79661,-1.627119 1.28826,-2.898586 37.17389,-19.436101 52.79096,-24.328155 8.35254,-2.616438 16.65084,-5.2972594 18.44067,-5.9573806 3.41257,-1.2586127 6.7022,-1.782618 31.45763,-5.0108862 22.68824,-2.9586925 62.29882,-2.3615712 70.82748,1.0677098 1.96528,0.7902188 4.89409,1.1998627 6.50847,0.9103197 1.61439,-0.2895429 6.84032,0.5912073 11.6132,1.9572228 4.77289,1.3660156 10.63051,2.8547755 13.01695,3.3083545 2.38644,0.45358 5.97123,1.534688 7.96618,2.402463 1.99496,0.867775 4.92377,1.843256 6.50848,2.167736 7.30637,1.496035 41.18254,17.472144 47.29663,22.305244 1.82241,1.440582 10.14736,7.533147 18.4999,13.539035 13.77885,9.907671 43.42999,36.99427 40.49686,36.99427 -0.66684,0 1.73763,3.172881 5.34324,7.050847 9.87598,10.62194 20.32939,24.72693 20.32939,27.43084 0,1.31982 0.97627,2.39967 2.16949,2.39967 1.19322,0 2.01464,0.7322 1.82539,1.62712 -0.38356,1.81357 11.17939,27.04041 13.17587,28.74576 0.69846,0.59661 1.61169,3.03729 2.02938,5.42373 0.41769,2.38644 1.83515,6.29152 3.14991,8.67796 1.31473,2.38645 2.57501,5.31526 2.80062,6.50848 0.22558,1.19322 1.92227,8.02712 3.7704,15.18644 11.46544,44.41509 11.14643,87.51536 -0.97805,132.14154 -1.32625,4.88146 -2.58938,9.85168 -2.80695,11.0449 -0.21756,1.19322 -1.47129,4.12203 -2.78602,6.50848 -1.31476,2.38644 -2.73222,6.29152 -3.14991,8.67796 -0.41769,2.38644 -1.24759,4.82712 -1.8442,5.42373 -0.59661,0.59661 -4.01356,7.43051 -7.59322,15.18644 -3.57966,7.75593 -7.26799,15.07797 -8.19627,16.27119 -0.92828,1.19322 -7.04239,9.49152 -13.58692,18.44068 -11.26096,15.39855 -33.36969,39.53857 -42.03819,45.9006 -2.18297,1.60213 -10.19414,7.23291 -17.80263,12.51285 -7.6085,5.27991 -14.32175,10.16127 -14.91836,10.84745 -2.09471,2.40916 -31.36273,16.31816 -35.72495,16.97753 -2.42586,0.36669 -4.71778,1.55989 -5.09319,2.65158 -0.37538,1.09169 -2.08386,1.44714 -3.79661,0.78989 -1.71272,-0.65723 -3.11406,-0.0566 -3.11406,1.33467 0,1.39129 -0.90882,1.96797 -2.01958,1.28147 -1.11078,-0.68651 -2.64264,-0.24005 -3.40415,0.99209 -0.76151,1.23214 -2.1729,1.75306 -3.13641,1.15755 -0.96352,-0.59548 -6.99776,0.5398 -13.40941,2.52284 -6.41168,1.98305 -12.97842,3.36473 -14.59281,3.07042 -1.61438,-0.29432 -4.54319,0.11151 -6.50847,0.90164 -4.95204,1.99116 -53.93655,5.27449 -55.48232,3.71888 z m 45.4006,-48.35765 c 22.01965,-3.17325 22.12804,-3.20034 42.5604,-10.64322 35.09701,-12.78475 71.20817,-39.64468 94.34298,-70.17352 13.78276,-18.18778 30.00418,-52.64788 35.95511,-76.38144 4.00337,-15.96625 4.86769,-25.22486 4.75807,-50.96804 -0.16098,-37.78792 -4.10479,-55.09137 -20.02643,-87.86441 -9.26895,-19.07915 -27.36384,-46.51116 -32.9624,-49.97125 -1.07807,-0.66629 -5.52735,6.39959 -9.88727,15.70194 -7.47489,15.94847 -9.21457,19.84009 -17.23094,38.54496 l -6.50848,15.18644 c -8.11544,18.93603 -9.55687,22.29938 -13.01695,30.37289 l -6.50847,15.18644 -6.50848,15.18644 -6.50847,15.18644 -6.50848,15.18644 c -1.78983,4.17627 -4.61984,10.78034 -6.28892,14.67572 -1.66908,3.89539 -4.57142,10.64702 -6.44966,15.00362 -1.87826,4.3566 -3.415,8.82892 -3.415,9.93848 0,1.10957 -2.19661,3.03708 -4.88135,4.28336 -7.97674,3.70287 -17.85448,7.56871 -18.49997,7.24031 -0.33091,-0.16835 -4.236,1.61139 -8.67797,3.95501 -4.44197,2.34359 -19.30342,8.86174 -33.02545,14.48478 -13.72203,5.62304 -26.9017,11.27216 -29.28814,12.55363 -2.38644,1.28146 -5.31525,2.51097 -6.50847,2.73226 -1.19322,0.22131 -8.02712,3.09803 -15.18644,6.39275 -7.15932,3.29472 -14.1268,6.23089 -15.48329,6.52484 -1.35649,0.29394 -8.67852,3.39775 -16.27119,6.89735 -22.04199,10.1596 -26.64621,12.13479 -29.64684,12.71836 -1.55377,0.30219 -5.18044,2.09276 -8.05926,3.97902 -2.87882,1.88629 -6.62482,3.4296 -8.32444,3.4296 -1.69962,0 -5.32,1.80556 -8.04528,4.01237 l -4.95506,4.01236 12.85031,10.19651 c 7.06766,5.60807 18.87053,13.60368 26.22858,17.76802 14.1168,7.9895 45.0717,20.12189 56.04545,21.96634 3.57966,0.60167 10.9017,1.84889 16.27119,2.77162 14.30849,2.45888 42.27998,2.41835 59.66101,-0.0863 z M 110.86102,384.19356 c 0,-2.01561 0.8733,-4.5922 1.94066,-5.72576 1.87032,-1.9863 41.4144,-93.09959 42.32408,-97.51865 0.24563,-1.19322 2.12158,-5.33213 4.16878,-9.1976 2.04721,-3.86547 3.68263,-7.53671 3.63427,-8.15833 -0.0483,-0.62162 1.41606,-4.03857 3.25424,-7.59322 1.83818,-3.55465 3.30259,-6.9716 3.25424,-7.59322 -0.0484,-0.62162 1.41605,-4.03857 3.25424,-7.59322 1.83818,-3.55465 3.30259,-6.9716 3.25423,-7.59322 -0.0484,-0.62163 1.41606,-4.03857 3.25424,-7.59322 1.83818,-3.55465 3.30259,-6.9716 3.25424,-7.59322 -0.0484,-0.62163 1.41605,-4.03857 3.25423,-7.59322 1.83819,-3.55466 3.45451,-7.20545 3.59183,-8.11286 0.88938,-5.87702 5.55223,-11.71913 10.3058,-12.91221 3.05829,-0.76758 11.13447,-4.16112 17.94706,-7.5412 6.81259,-3.38008 13.51099,-6.1456 14.88534,-6.1456 1.37435,0 5.09012,-1.35105 8.25728,-3.00234 9.70593,-5.06047 32.86959,-14.78964 35.04659,-14.72022 0.59661,0.0191 4.5017,-1.72392 8.67797,-3.87322 8.28644,-4.26458 20.27602,-9.32293 21.17528,-8.93375 0.3108,0.13451 3.47346,-1.2594 7.02811,-3.09759 3.55465,-1.83818 6.71731,-3.12273 7.02811,-2.85454 0.3108,0.26818 4.47019,-1.53404 9.24308,-4.00493 10.69409,-5.53627 22.72731,-11.06478 46.64406,-21.43006 10.14238,-4.3956 19.26925,-8.76028 20.28197,-9.69929 2.2894,-2.12282 -16.09648,-16.822376 -35.34158,-28.255677 C 295.38964,37.188083 205.63143,39.48083 142.32968,81.429517 119.45896,96.585448 87.37403,129.7811 76.38418,149.65794 c -21.636094,39.13221 -30.05504,74.924 -27.780512,118.10441 2.415607,45.85878 16.925186,83.23361 46.71517,120.33235 l 7.643212,9.5184 3.94948,-4.8774 c 2.17222,-2.68258 3.94949,-6.52655 3.94949,-8.54214 z m 73.76271,-44.84658 c 10.14237,-4.23428 20.15518,-8.23838 22.25069,-8.89801 3.14887,-0.99122 34.4783,-14.56927 75.89674,-32.89334 4.46245,-1.97423 8.12346,-4.55469 8.13559,-5.73435 0.0291,-2.82917 -67.61778,-70.53314 -70.47368,-70.53314 -1.2142,0 -4.52237,5.12542 -7.35149,11.38983 -2.82915,6.2644 -7.39033,16.27118 -10.13597,22.23728 -10.81387,23.49785 -15.85842,35.79661 -14.68262,35.79661 0.67706,0 0.21919,1.22034 -1.01747,2.71187 -4.81874,5.81183 -24.18441,53.81712 -21.64618,53.65842 0.32104,-0.0195 8.88202,-3.50091 19.02439,-7.73517 z"
     id="path10"
     inkscape:connector-curvature="0" />
</svg>
