<?xml version="1.0"?>
<svg xmlns="http://www.w3.org/2000/svg" viewBox="0 0 64 64">
    <path d="M 19.740234 0.125 C 19.610328 0.126375 19.478563 0.15153125 19.351562 0.20703125 C 18.844562 0.42703125 18.612031 1.0164375 18.832031 1.5234375 L 19.326172 2.6601562 C 6.3081719 8.8981563 0.43628125 24.421578 6.2382812 37.767578 C 9.1142812 44.381578 14.392516 49.477094 21.103516 52.121094 C 23.988516 53.257094 26.989 53.877234 30 53.990234 L 30 58 L 20.189453 58 C 17.998453 58 15.904844 59.047781 14.589844 60.800781 L 13.388672 62.400391 C 13.160672 62.703391 13.125922 63.108266 13.294922 63.447266 C 13.465922 63.786266 13.811453 64 14.189453 64 L 52.189453 64 C 52.568453 64 52.913984 63.786266 53.083984 63.447266 C 53.252984 63.108266 53.216281 62.703391 52.988281 62.400391 L 51.789062 60.800781 C 50.475062 59.047781 48.381453 58 46.189453 58 L 36 58 L 36 53.535156 C 37.638 53.223156 39.257844 52.757719 40.839844 52.136719 L 41.332031 53.273438 C 41.496031 53.649437 41.864953 53.875 42.251953 53.875 C 42.384953 53.875 42.519437 53.848969 42.648438 53.792969 C 43.155437 53.572969 43.387969 52.983563 43.167969 52.476562 L 42.667969 51.326172 C 47.619969 48.955172 51.674109 45.225172 54.412109 40.451172 C 54.687109 39.972172 54.521969 39.360937 54.042969 39.085938 C 53.564969 38.810938 52.951734 38.976078 52.677734 39.455078 C 50.154734 43.853078 46.424141 47.296188 41.869141 49.492188 L 40.271484 45.814453 C 44.972484 43.503453 48.607062 39.603266 50.539062 34.697266 C 50.922063 33.723266 51.206453 32.729516 51.439453 31.728516 C 51.449453 31.684516 51.470609 31.646609 51.474609 31.599609 C 51.474609 31.593609 51.472656 31.587078 51.472656 31.580078 C 52.352656 27.687078 52.102562 23.653281 50.726562 19.863281 C 50.718562 19.755281 50.70225 19.647969 50.65625 19.542969 L 49.859375 17.707031 C 49.813375 17.603031 49.743875 17.518453 49.671875 17.439453 C 47.840875 13.851453 45.064094 10.91825 41.621094 8.90625 C 41.613094 8.90025 41.610516 8.8907656 41.603516 8.8847656 C 41.551516 8.8437656 41.488641 8.8288281 41.431641 8.7988281 C 40.555641 8.2988281 39.651312 7.8369375 38.695312 7.4609375 C 33.787312 5.5269375 28.4555 5.5247188 23.5625 7.3867188 L 20.667969 0.7265625 C 20.502969 0.3470625 20.129953 0.120875 19.740234 0.125 z M 20.125 4.4941406 L 21.730469 8.1855469 C 17.029469 10.496547 13.394891 14.396734 11.462891 19.302734 C 11.088891 20.251734 10.810125 21.220312 10.578125 22.195312 C 10.557125 22.263313 10.526531 22.325438 10.519531 22.398438 C 10.518531 22.410438 10.524438 22.421594 10.523438 22.433594 C 9.5524375 26.747594 9.9451875 31.241047 11.742188 35.373047 C 13.539188 39.506047 16.557 42.857844 20.375 45.089844 C 20.384 45.096844 20.387484 45.106281 20.396484 45.113281 C 20.491484 45.188281 20.595125 45.242344 20.703125 45.277344 C 21.538125 45.745344 22.396734 46.180109 23.302734 46.537109 C 25.796734 47.520109 28.402906 48.009766 31.003906 48.009766 C 33.520906 48.009766 36.028547 47.524375 38.435547 46.609375 L 40.041016 50.302734 C 37.331016 51.357734 34.505969 51.924 31.667969 52 L 31 52 C 30.989 52 30.97975 52.005859 30.96875 52.005859 C 27.88375 52.000859 24.794891 51.424766 21.837891 50.259766 C 15.624891 47.811766 10.735266 43.09275 8.0722656 36.96875 C 2.7102656 24.63575 8.117 10.290141 20.125 4.4941406 z M 30.994141 7.9902344 C 33.348141 7.9902344 35.706891 8.4322656 37.962891 9.3222656 C 38.455891 9.5162656 38.930391 9.7416562 39.400391 9.9726562 C 38.410391 11.082656 37.249406 12.165219 35.941406 13.199219 C 33.972406 10.787219 31.813625 9.0405469 29.640625 8.0605469 C 30.091625 8.0265469 30.542141 7.9902344 30.994141 7.9902344 z M 25.572266 9.1621094 C 28.373523 9.1184277 31.5395 11.026188 34.328125 14.398438 C 32.458125 15.707437 30.369437 16.902641 28.148438 17.931641 L 24.396484 9.3007812 C 24.779609 9.2134063 25.172086 9.1683496 25.572266 9.1621094 z M 22.560547 10.097656 L 26.3125 18.728516 C 24.0445 19.651516 21.746672 20.364844 19.513672 20.839844 C 18.867672 15.880844 19.956547 11.862656 22.560547 10.097656 z M 41.1875 10.962891 C 44.3735 12.977891 46.887828 15.890828 48.423828 19.423828 C 49.960828 22.956828 50.377734 26.782328 49.677734 30.486328 C 47.921734 30.410328 46.058047 30.520406 44.123047 30.816406 C 43.903047 29.783406 43.620531 28.725531 43.269531 27.644531 C 43.097531 27.119531 42.534766 26.831953 42.009766 27.001953 C 41.484766 27.171953 41.197187 27.736719 41.367188 28.261719 C 41.689188 29.252719 41.948391 30.225828 42.150391 31.173828 C 39.774391 31.674828 37.328672 32.4385 34.888672 33.4375 L 33.882812 31.121094 C 33.661813 30.615094 33.073406 30.381516 32.566406 30.603516 C 32.059406 30.823516 31.828828 31.412922 32.048828 31.919922 L 33.054688 34.234375 C 30.659688 35.337375 28.435219 36.607906 26.449219 38.003906 C 25.893219 37.208906 25.357563 36.354359 24.851562 35.443359 C 24.582563 34.959359 23.977187 34.788688 23.492188 35.054688 C 23.010188 35.322688 22.835516 35.929109 23.103516 36.412109 C 23.655516 37.407109 24.241656 38.331266 24.847656 39.197266 C 23.310656 40.411266 21.9575 41.700109 20.8125 43.037109 C 17.6265 41.022109 15.112172 38.109172 13.576172 34.576172 C 12.039172 31.042172 11.622266 27.215719 12.322266 23.511719 C 12.669266 23.526719 13.009234 23.552734 13.365234 23.552734 C 14.809234 23.552734 16.323953 23.418641 17.876953 23.181641 C 18.096953 24.214641 18.378469 25.274469 18.730469 26.355469 C 18.868469 26.778469 19.259641 27.048828 19.681641 27.048828 C 19.784641 27.048828 19.887234 27.031047 19.990234 26.998047 C 20.515234 26.828047 20.804766 26.263281 20.634766 25.738281 C 20.312766 24.746281 20.053562 23.773219 19.851562 22.824219 C 22.228562 22.323219 24.672281 21.565406 27.113281 20.566406 L 28.119141 22.878906 C 28.283141 23.254906 28.650109 23.480469 29.037109 23.480469 C 29.170109 23.480469 29.306547 23.454437 29.435547 23.398438 C 29.942547 23.178438 30.173125 22.589031 29.953125 22.082031 L 28.947266 19.765625 C 31.342266 18.662625 33.566734 17.394047 35.552734 15.998047 C 36.108734 16.793047 36.644391 17.645641 37.150391 18.556641 C 37.419391 19.039641 38.024766 19.214266 38.509766 18.947266 C 38.991766 18.679266 39.166438 18.070891 38.898438 17.587891 C 38.347437 16.593891 37.763203 15.665781 37.158203 14.800781 C 38.692203 13.585781 40.0445 12.297891 41.1875 10.962891 z M 18.072266 13.09375 C 17.307266 15.34975 17.113156 18.118172 17.535156 21.201172 C 15.887156 21.452172 14.303406 21.561297 12.816406 21.529297 C 12.968406 21.028297 13.128266 20.529109 13.322266 20.037109 C 14.381266 17.348109 16.015266 15.00375 18.072266 13.09375 z M 44.347656 19.101562 C 44.217797 19.102797 44.085734 19.130297 43.958984 19.185547 C 43.451984 19.405547 43.219453 19.994 43.439453 20.5 L 44.236328 22.333984 C 44.399328 22.710984 44.767297 22.935547 45.154297 22.935547 C 45.287297 22.935547 45.423734 22.909516 45.552734 22.853516 C 46.059734 22.633516 46.290312 22.043109 46.070312 21.537109 L 45.273438 19.703125 C 45.108438 19.323625 44.737234 19.097859 44.347656 19.101562 z M 39.761719 21.095703 C 39.631859 21.097031 39.499797 21.124437 39.373047 21.179688 C 38.866047 21.398687 38.633516 21.988141 38.853516 22.494141 L 39.652344 24.328125 C 39.816344 24.704125 40.183312 24.929687 40.570312 24.929688 C 40.703313 24.929688 40.837797 24.903656 40.966797 24.847656 C 41.473797 24.627656 41.706328 24.03725 41.486328 23.53125 L 40.6875 21.697266 C 40.5225 21.317766 40.151297 21.091719 39.761719 21.095703 z M 35.177734 23.087891 C 35.047672 23.089219 34.914859 23.116625 34.787109 23.171875 C 34.281109 23.391875 34.049531 23.982281 34.269531 24.488281 L 35.068359 26.322266 C 35.232359 26.698266 35.599328 26.923828 35.986328 26.923828 C 36.119328 26.923828 36.253812 26.897797 36.382812 26.841797 C 36.889812 26.621797 37.122344 26.031391 36.902344 25.525391 L 36.103516 23.689453 C 35.937766 23.309953 35.567922 23.083906 35.177734 23.087891 z M 30.591797 25.082031 C 30.461938 25.083313 30.329875 25.110516 30.203125 25.166016 C 29.696125 25.386016 29.465547 25.974469 29.685547 26.480469 L 30.482422 28.314453 C 30.645422 28.691453 31.013391 28.917969 31.400391 28.917969 C 31.533391 28.917969 31.667875 28.889984 31.796875 28.833984 C 32.303875 28.613984 32.536406 28.025531 32.316406 27.519531 L 31.519531 25.685547 C 31.354531 25.306047 30.981375 25.078187 30.591797 25.082031 z M 26.005859 27.076172 C 25.876078 27.077469 25.743938 27.104656 25.617188 27.160156 C 25.110187 27.380156 24.879609 27.970563 25.099609 28.476562 L 25.896484 30.310547 C 26.060484 30.686547 26.427453 30.912109 26.814453 30.912109 C 26.947453 30.912109 27.082891 30.884125 27.212891 30.828125 C 27.718891 30.608125 27.950469 30.019672 27.730469 29.513672 L 26.933594 27.677734 C 26.767844 27.298984 26.395203 27.072281 26.005859 27.076172 z M 21.421875 29.068359 C 21.291969 29.069734 21.160203 29.096844 21.033203 29.152344 C 20.526203 29.372344 20.293672 29.96275 20.513672 30.46875 L 21.3125 32.302734 C 21.4765 32.678734 21.843469 32.904297 22.230469 32.904297 C 22.363469 32.904297 22.497953 32.878266 22.626953 32.822266 C 23.133953 32.602266 23.366484 32.011859 23.146484 31.505859 L 22.347656 29.671875 C 22.182656 29.292375 21.811594 29.064234 21.421875 29.068359 z M 16.835938 31.064453 C 16.706 31.065687 16.574016 31.091234 16.447266 31.146484 C 15.940266 31.366484 15.709688 31.956891 15.929688 32.462891 L 16.726562 34.296875 C 16.889563 34.673875 17.257531 34.898437 17.644531 34.898438 C 17.777531 34.898438 17.912016 34.870453 18.041016 34.814453 C 18.548016 34.594453 18.780547 34.006 18.560547 33.5 L 17.763672 31.666016 C 17.599422 31.286516 17.22575 31.06075 16.835938 31.064453 z M 49.185547 32.470703 C 49.032547 32.971703 48.871734 33.470891 48.677734 33.962891 C 47.618734 36.651891 45.984734 38.99625 43.927734 40.90625 C 44.691734 38.64925 44.885844 35.881828 44.464844 32.798828 C 46.112844 32.547828 47.698547 32.437703 49.185547 32.470703 z M 42.484375 33.160156 C 43.131375 38.119156 42.043453 42.137344 39.439453 43.902344 L 35.685547 35.271484 C 37.953547 34.348484 40.251375 33.635156 42.484375 33.160156 z M 33.853516 36.068359 L 37.605469 44.699219 C 34.539469 45.400219 30.858875 43.456563 27.671875 39.601562 C 29.541875 38.292563 31.631516 37.097359 33.853516 36.068359 z M 26.052734 40.804688 C 28.018734 43.215688 30.177656 44.958453 32.347656 45.939453 C 29.549656 46.140453 26.722109 45.736734 24.037109 44.677734 C 23.544109 44.483734 23.069609 44.258344 22.599609 44.027344 C 23.587609 42.919344 24.746734 41.837688 26.052734 40.804688 z M 32 54 L 34 54 L 34 58 L 32 58 L 32 54 z M 20.189453 60 L 31 60 L 35 60 L 46.189453 60 C 47.754453 60 49.250453 60.748 50.189453 62 L 16.189453 62 C 17.128453 60.748 18.624453 60 20.189453 60 z"/>
</svg>
