<?xml version="1.0"?>
<svg xmlns="http://www.w3.org/2000/svg" viewBox="0 0 64 64">
    <path d="M 32 0.53125 C 28.315 0.53125 25.048766 2.4547813 23.259766 5.6757812 L 18.119141 14.927734 C 17.317141 16.369734 17.836297 18.200859 19.279297 19.005859 L 21.025391 19.978516 C 21.726391 20.369516 22.537547 20.463141 23.310547 20.244141 C 24.081547 20.025141 24.720375 19.517406 25.109375 18.816406 L 30.251953 9.5605469 C 30.748953 8.6655469 31.561 8.53125 32 8.53125 C 32.439 8.53125 33.250141 8.6666875 33.744141 9.5546875 L 39.298828 19.71875 L 37.025391 20.525391 C 36.251391 20.799391 35.729312 21.508078 35.695312 22.330078 C 35.662312 23.152078 36.125953 23.899328 36.876953 24.236328 L 47.070312 28.800781 C 47.334313 28.917781 47.613625 28.976562 47.890625 28.976562 C 48.223625 28.976562 48.554422 28.892609 48.857422 28.724609 C 49.413422 28.415609 49.782141 27.878047 49.869141 27.248047 L 50.369141 23.634766 C 50.394141 23.543766 50.40625 23.449469 50.40625 23.355469 L 51.396484 16.183594 C 51.508484 15.370594 51.12025 14.580828 50.40625 14.173828 C 49.69225 13.766828 48.815875 13.83375 48.171875 14.34375 L 46.357422 15.785156 L 40.740234 5.6757812 C 38.951234 2.4557813 35.685 0.53125 32 0.53125 z M 32 2.53125 C 34.948 2.53125 37.561187 4.0704844 38.992188 6.6464844 L 45.181641 17.787109 C 45.324641 18.044109 45.573328 18.226203 45.861328 18.283203 C 46.149328 18.342203 46.446734 18.267938 46.677734 18.085938 L 49.414062 15.910156 L 48.410156 23.1875 C 48.409156 23.1965 48.409203 23.204891 48.408203 23.212891 C 48.407203 23.220891 48.406297 23.229328 48.404297 23.236328 L 47.888672 26.974609 L 37.693359 22.410156 L 41.072266 21.210938 C 41.348266 21.112938 41.568828 20.897047 41.673828 20.623047 C 41.778828 20.349047 41.756234 20.044109 41.615234 19.787109 L 35.496094 8.5898438 C 34.464094 6.7318438 32.708 6.53125 32 6.53125 C 31.292 6.53125 29.535906 6.7318438 28.503906 8.5898438 L 23.361328 17.845703 C 23.231328 18.078703 23.018719 18.248266 22.761719 18.322266 C 22.503719 18.393266 22.233047 18.362422 21.998047 18.232422 L 20.253906 17.259766 C 19.772906 16.990766 19.597234 16.379437 19.865234 15.898438 L 25.005859 6.6464844 C 26.437859 4.0694844 29.052 2.53125 32 2.53125 z M 16.576172 24.136719 C 16.271297 24.122719 15.964328 24.179594 15.673828 24.308594 L 5.4648438 28.847656 C 4.7138437 29.181656 4.2482969 29.929953 4.2792969 30.751953 C 4.3102969 31.572953 4.8295156 32.281594 5.6035156 32.558594 L 7.8710938 33.369141 L 2.4765625 43.085938 C 0.7375625 46.215938 0.78360937 49.927672 2.5996094 53.013672 C 4.4156094 56.099672 7.63775 57.941406 11.21875 57.941406 L 21 57.941406 C 22.654 57.941406 24 56.595406 24 54.941406 L 24 52.941406 C 24 51.285406 22.654 50 21 50 L 11.21875 50 C 10.22375 50 9.7111406 49.322078 9.4941406 48.955078 C 9.2781406 48.587078 8.9877031 47.83875 9.4707031 46.96875 L 14.859375 37.269531 L 16.736328 38.769531 C 17.378328 39.282531 18.255703 39.353266 18.970703 38.947266 C 19.685703 38.542266 20.076797 37.754453 19.966797 36.939453 L 18.466797 25.869141 C 18.381797 25.239141 18.014937 24.700625 17.460938 24.390625 C 17.182938 24.235625 16.881047 24.150719 16.576172 24.136719 z M 16.486328 26.136719 L 17.984375 37.205078 L 15.183594 34.96875 C 14.953594 34.78475 14.653234 34.711531 14.365234 34.769531 C 14.076234 34.827531 13.827547 35.007625 13.685547 35.265625 L 7.7207031 45.998047 C 6.7187031 47.802047 7.4205313 49.376703 7.7695312 49.970703 C 8.1185313 50.563703 9.15475 51.941406 11.21875 51.941406 L 21 51.941406 C 21.551 51.941406 22 52.389406 22 52.941406 L 22 54.939453 C 22 55.491453 21.551 56 21 56 L 11.21875 56 C 8.35375 56 5.7752656 54.466094 4.3222656 51.996094 C 2.8692656 49.527094 2.8336094 46.558687 4.2246094 44.054688 L 10.191406 33.310547 C 10.334406 33.053547 10.357906 32.748656 10.253906 32.472656 C 10.149906 32.198656 9.9302969 31.983766 9.6542969 31.884766 L 6.2773438 30.675781 L 16.486328 26.136719 z M 54.263672 32.740234 C 53.688035 32.689375 53.093406 32.804344 52.550781 33.105469 L 50.800781 34.074219 C 50.098781 34.464219 49.592094 35.103 49.371094 35.875 C 49.150094 36.646 49.243812 37.454297 49.632812 38.154297 L 54.529297 46.96875 C 55.012297 47.83875 54.721859 48.586125 54.505859 48.953125 C 54.290859 49.322125 53.77625 50 52.78125 50 L 41.230469 50 L 41.601562 47.59375 C 41.729563 46.78475 41.359203 45.989359 40.658203 45.568359 C 39.957203 45.145359 39.081781 45.191641 38.425781 45.681641 L 29.46875 52.400391 C 28.95975 52.781391 28.667969 53.365953 28.667969 54.001953 C 28.667969 54.637953 28.958797 55.221563 29.466797 55.601562 L 38.404297 62.304688 C 38.759297 62.571688 39.179563 62.705078 39.601562 62.705078 C 39.959562 62.705078 40.320578 62.607109 40.642578 62.412109 C 41.345578 61.984109 41.710172 61.185 41.576172 60.375 L 41.179688 57.992188 L 48 57.939453 L 52.78125 57.939453 C 56.36225 57.939453 59.584391 56.097719 61.400391 53.011719 C 63.216391 49.925719 63.262437 46.213984 61.523438 43.083984 L 56.628906 34.271484 C 56.127031 33.368359 55.223066 32.825 54.263672 32.740234 z M 24 33 C 23.448 33 23 33.447 23 34 L 23 36 C 23 36.553 23.448 37 24 37 C 24.552 37 25 36.553 25 36 L 25 34 C 25 33.447 24.552 33 24 33 z M 29 33 C 28.448 33 28 33.447 28 34 L 28 36 C 28 36.553 28.448 37 29 37 C 29.552 37 30 36.553 30 36 L 30 34 C 30 33.447 29.552 33 29 33 z M 34 33 C 33.448 33 33 33.447 33 34 L 33 36 C 33 36.553 33.448 37 34 37 C 34.552 37 35 36.553 35 36 L 35 34 C 35 33.447 34.552 33 34 33 z M 39 33 C 38.448 33 38 33.447 38 34 L 38 36 C 38 36.553 38.448 37 39 37 C 39.552 37 40 36.553 40 36 L 40 34 C 40 33.447 39.552 33 39 33 z M 44 33 C 43.448 33 43 33.447 43 34 L 43 36 C 43 36.553 43.448 37 44 37 C 44.552 37 45 36.553 45 36 L 45 34 C 45 33.447 44.552 33 44 33 z M 53.900391 34.734375 C 54.287672 34.693266 54.680609 34.880687 54.880859 35.242188 L 59.777344 44.054688 C 61.167344 46.559688 61.130734 49.527094 59.677734 51.996094 C 58.225734 54.466094 55.64625 56 52.78125 56 L 39.992188 56 C 39.699188 56.002 39.422375 56.132469 39.234375 56.355469 C 39.046375 56.579469 38.965672 56.876062 39.013672 57.164062 L 39.603516 60.703125 L 30.667969 54 L 39.626953 47.279297 L 39.070312 50.783203 C 39.025312 51.072203 39.108828 51.366844 39.298828 51.589844 C 39.488828 51.812844 39.766594 51.941406 40.058594 51.941406 L 52.78125 51.941406 C 54.84525 51.941406 55.881469 50.56275 56.230469 49.96875 C 56.579469 49.37575 57.281297 47.802047 56.279297 45.998047 L 51.382812 37.183594 C 51.252812 36.950594 51.222875 36.681781 51.296875 36.425781 C 51.369875 36.167781 51.539437 35.954219 51.773438 35.824219 L 53.521484 34.853516 C 53.641734 34.786766 53.771297 34.748078 53.900391 34.734375 z"/>
</svg>
