<?xml version="1.0" encoding="UTF-8" standalone="no"?>
<!-- Generated by IcoMoon.io -->

<svg
   xmlns:dc="http://purl.org/dc/elements/1.1/"
   xmlns:cc="http://creativecommons.org/ns#"
   xmlns:rdf="http://www.w3.org/1999/02/22-rdf-syntax-ns#"
   xmlns:svg="http://www.w3.org/2000/svg"
   xmlns="http://www.w3.org/2000/svg"
   xmlns:sodipodi="http://sodipodi.sourceforge.net/DTD/sodipodi-0.dtd"
   xmlns:inkscape="http://www.inkscape.org/namespaces/inkscape"
   version="1.1"
   width="512"
   height="512"
   viewBox="0 0 512 512"
   id="svg7"
   sodipodi:docname="tux.svg"
   inkscape:version="0.92.2 (unknown)">
  <metadata
     id="metadata13">
    <rdf:RDF>
      <cc:Work
         rdf:about="">
        <dc:format>image/svg+xml</dc:format>
        <dc:type
           rdf:resource="http://purl.org/dc/dcmitype/StillImage" />
        <dc:title></dc:title>
      </cc:Work>
    </rdf:RDF>
  </metadata>
  <defs
     id="defs11" />
  <sodipodi:namedview
     pagecolor="#ffffff"
     bordercolor="#666666"
     borderopacity="1"
     objecttolerance="10"
     gridtolerance="10"
     guidetolerance="10"
     inkscape:pageopacity="0"
     inkscape:pageshadow="2"
     inkscape:window-width="1920"
     inkscape:window-height="1001"
     id="namedview9"
     showgrid="false"
     inkscape:zoom="0.4609375"
     inkscape:cx="-135.59322"
     inkscape:cy="256"
     inkscape:window-x="0"
     inkscape:window-y="27"
     inkscape:window-maximized="1"
     inkscape:current-layer="svg7" />
  <g
     id="icomoon-ignore" />
  <path
     d="m 283.99876,355.13776 c -36.63174,16.31322 -70.70198,16.14117 -93.58207,14.55941 -27.29232,-1.88733 -49.24436,-9.04035 -58.89314,-15.29209 -5.94555,-3.85426 -14.02972,-2.36323 -18.0557,3.33044 -4.0251,5.6928 -2.46763,13.43214 3.47882,17.28555 15.51118,10.05121 42.94564,17.52692 71.59784,19.5067 4.85747,0.33552 10.19148,0.54694 15.93497,0.54694 24.93644,0 56.60611,-2.27507 90.4886,-17.36259 6.51061,-2.90076 9.33317,-10.30286 6.30497,-16.53661 -3.02821,-6.23376 -10.76279,-8.93251 -17.27429,-6.03775 z M 428.52125,336.69242 C 429.76669,228.55051 441.37883,24.188961 225.13423,40.705886 11.630844,57.157762 68.241428,273.07782 65.059441,345.39639 62.239551,383.65058 48.976055,430.41102 30.237288,478 h 57.712076 c 5.930356,-20.16662 10.292506,-40.10899 12.173626,-59.12352 3.47882,2.323 7.20082,4.5681 11.17317,6.71906 6.46321,3.64542 12.01806,8.49256 17.89923,13.62387 13.74361,11.99076 29.32096,25.58126 59.7738,27.2837 2.04384,0.11213 4.10109,0.16863 6.11364,0.16863 30.79884,0 51.86219,-12.9049 68.78868,-23.27366 8.10919,-4.96954 15.11779,-9.26118 21.70975,-11.32056 18.73519,-5.61492 35.10647,-14.67753 47.34268,-26.21378 1.91151,-1.80089 3.68445,-3.65398 5.34742,-5.54132 6.81548,23.9139 16.14597,50.82442 26.50375,77.67758 H 488 C 458.41798,434.25158 427.90255,391.39078 428.52125,336.69242 Z M 85.718665,277.86248 c 0,-0.007 0,-0.0128 -8.93e-4,-0.0197 -2.121624,-35.29095 15.516538,-64.97896 39.395308,-66.30736 23.87698,-1.32927 44.95373,26.2035 47.07445,61.4953 0,0.006 0.002,0.0128 0.002,0.0188 0.11444,1.90273 0.16451,3.78579 0.16541,5.65172 -7.56561,1.82143 -14.39092,4.46625 -20.50635,7.54504 -0.0232,-0.26191 -0.0411,-0.5204 -0.0679,-0.78317 0,-0.004 0,-0.008 0,-0.0111 -2.04294,-20.0331 -13.21969,-35.1617 -24.96773,-33.79136 -11.74805,1.37121 -19.61585,18.72353 -17.5738,38.75576 0,0.005 0.002,0.008 0.002,0.0111 0.89049,8.73393 3.51726,16.5349 7.17132,22.44426 -0.90926,0.68646 -3.47971,2.48734 -6.43997,4.56041 -2.22176,1.55523 -4.92631,3.44855 -8.18698,5.74758 -8.88792,-11.16735 -14.978318,-27.21009 -16.066398,-45.31734 z m 241.912395,87.23063 c -0.84937,18.65334 -26.33387,36.20251 -49.88094,43.24341 l -0.13232,0.0411 c -9.79004,3.03941 -18.51972,8.38814 -27.7626,14.05013 -15.52637,9.51112 -31.58115,19.3475 -54.77148,19.3475 -1.5217,0 -3.08185,-0.0445 -4.61608,-0.12669 -21.24125,-1.18888 -31.17703,-9.85691 -43.75567,-20.83167 -6.63488,-5.78867 -13.49595,-11.77507 -22.34097,-16.74376 l -0.18953,-0.10441 c -19.09103,-10.31567 -30.94011,-23.14524 -31.69829,-34.3203 -0.3764,-5.555 2.20746,-10.36449 7.68094,-14.29406 11.90719,-8.54734 19.88318,-14.1323 25.16085,-17.82822 5.86062,-4.10334 7.62998,-5.34102 8.94068,-6.53248 0.93699,-0.84994 1.95086,-1.79232 3.04162,-2.80831 10.9282,-10.17447 29.21814,-27.20238 57.2874,-27.20238 17.16789,0 36.16414,6.33389 56.40227,18.78856 9.53254,5.93932 17.82859,8.68173 28.333,12.15424 7.22228,2.3872 15.40837,5.09366 26.37142,9.58816 l 0.17703,0.0702 c 10.22814,4.02458 22.3052,11.36848 21.75267,23.50903 z m -5.63889,-43.81175 c -1.96695,-0.94752 -4.01168,-1.84881 -6.14403,-2.6902 -9.88213,-4.04684 -17.80625,-6.79353 -24.37855,-8.98643 3.62813,-6.8021 5.88297,-15.28696 6.09039,-24.49764 0,-0.005 0,-0.009 0,-0.0128 0.50336,-22.41431 -11.30459,-40.61229 -26.37321,-40.64652 -15.06951,-0.0334 -27.69375,18.10896 -28.19711,40.5224 0,0.005 0,0.008 0,0.012 -0.017,0.73353 -0.0188,1.46193 -0.009,2.1869 -9.28132,-4.08793 -18.40886,-7.05716 -27.34328,-8.88457 -0.0412,-0.84224 -0.0912,-1.68277 -0.10907,-2.53356 0,-0.007 0,-0.0154 0,-0.0214 -0.86636,-40.83311 25.303,-74.63302 58.45147,-75.49409 33.14756,-0.86192 60.71972,31.5411 61.58875,72.37336 0,0.008 0,0.0162 0,0.0223 0.39071,18.46502 -4.76538,35.46383 -13.57642,48.65033 z"
     id="path5"
     style="fill:#4d4d4d;stroke-width:0.87479228"
     inkscape:connector-curvature="0" />
</svg>
